<svg width="116" height="77" viewBox="0 0 116 77" fill="none" xmlns="http://www.w3.org/2000/svg">
<path d="M114.69 62.3137H109.662C109.506 61.481 109.263 60.8913 108.932 60.5608C108.395 60.0229 107.478 59.7443 106.211 59.7443C104.944 59.7443 104.095 59.9516 103.612 60.3696C103.246 60.6807 103.055 61.1148 103.055 61.6527C103.055 62.4141 104.114 63.0232 106.211 63.4898C108.605 64.0082 110.323 64.4619 111.379 64.8248C111.657 64.9284 111.9 65.0159 112.072 65.1034C114.207 66.1111 115.264 67.6372 115.264 69.6817C115.264 72.1798 114.224 74.0007 112.16 75.1445C111.9 75.2838 111.657 75.4037 111.379 75.5268C110.044 76.1003 108.482 76.3919 106.732 76.3919C104.114 76.3919 101.995 75.9221 100.385 75.0052C99.3709 74.4155 98.6128 73.6735 98.1073 72.7792C97.6018 71.8849 97.3491 70.8416 97.3491 69.646H102.621C102.621 70.5468 102.951 71.2596 103.593 71.7456C104.234 72.2478 105.329 72.5103 106.872 72.5103C108.035 72.5103 108.9 72.2673 109.474 71.7813C109.924 71.3989 110.131 70.981 110.131 70.4982C110.131 69.6817 109.091 69.0434 107.027 68.5898C103.939 67.9288 101.999 67.3909 101.202 67.0086C99.0858 66.0203 98.0457 64.4943 98.0457 62.3785C98.0457 60.6807 98.5836 59.242 99.6917 58.0626C101.078 56.5884 103.159 55.8594 105.919 55.8594C108.191 55.8594 110.011 56.1899 111.382 56.8314C111.502 56.8832 111.609 56.9351 111.713 57.0064C112.701 57.541 113.446 58.2538 113.945 59.1416C114.444 60.0229 114.693 61.0824 114.693 62.3137H114.69Z" fill="white"/>
<path d="M112.001 50.0337C112.001 49.9301 111.985 49.8426 111.933 49.7745C111.881 49.687 111.813 49.6352 111.709 49.6028C111.641 49.5834 111.534 49.5672 111.379 49.5477H110.582V50.5198H111.379C111.605 50.5036 111.761 50.4679 111.848 50.3804C111.952 50.2929 112.004 50.1698 112.004 50.0337H112.001ZM112.419 49.5121C112.522 49.6514 112.574 49.8069 112.574 49.9819C112.574 50.2249 112.487 50.4323 112.315 50.6072C112.143 50.7822 111.917 50.8859 111.641 50.9021C111.761 50.9539 111.848 51.0058 111.92 51.0738L112.406 51.7154L112.788 52.3569H112.163L111.868 51.8385C111.68 51.5112 111.524 51.265 111.382 51.1451C111.366 51.1289 111.346 51.1095 111.314 51.0933L110.899 50.9734H110.588V52.3601H110.066V49.1006H111.194C111.265 49.1006 111.333 49.1168 111.385 49.1168C111.664 49.1168 111.871 49.1524 112.01 49.2043C112.182 49.2561 112.322 49.3598 112.428 49.5153L112.419 49.5121Z" fill="white"/>
<path d="M113.893 50.6947C113.893 50.2444 113.789 49.8264 113.562 49.4278C113.336 49.0293 113.025 48.7183 112.626 48.4915C112.227 48.2841 111.81 48.161 111.395 48.161H111.379C110.961 48.161 110.546 48.2841 110.151 48.4915C109.749 48.7183 109.438 49.0293 109.211 49.4278C108.987 49.8264 108.864 50.2444 108.864 50.6947C108.864 51.1451 108.984 51.5436 109.211 51.9422C109.422 52.3213 109.733 52.6355 110.131 52.8591C110.53 53.0859 110.948 53.1896 111.379 53.1896H111.395C111.829 53.1896 112.244 53.0859 112.645 52.8591C113.044 52.6355 113.355 52.3213 113.562 51.9422C113.789 51.5404 113.893 51.1257 113.893 50.6947ZM114.395 50.6947C114.395 51.1969 114.272 51.7024 113.993 52.1852C113.734 52.6712 113.368 53.0341 112.885 53.2933C112.399 53.5719 111.913 53.6951 111.392 53.6951H111.375C110.857 53.6951 110.371 53.5752 109.885 53.2933C109.399 53.0341 109.036 52.6679 108.774 52.1852C108.495 51.6992 108.375 51.1969 108.375 50.6947C108.375 50.1569 108.495 49.6547 108.774 49.1686C109.052 48.6826 109.415 48.3197 109.901 48.0605C110.387 47.8013 110.873 47.6782 111.375 47.662H111.392C111.894 47.662 112.383 47.8013 112.866 48.0605C113.352 48.323 113.734 48.6859 113.993 49.1686C114.272 49.6547 114.395 50.1569 114.395 50.6947Z" fill="white"/>
<path d="M84.8938 26.1865L99.134 49.9138H84.8938H76.2556L62.6602 27.2461L52.3599 10.0929L62.6602 3.90109L69.1469 0L84.8938 26.1865Z" fill="white"/>
<path d="M95.2297 66.3866V76.1166H90.4927V75.0409C88.8953 76.081 86.9901 76.6901 84.9424 76.6901H84.8905C79.2366 76.6545 74.6421 72.0406 74.6421 66.3866C74.6421 60.7326 79.2398 56.1219 84.8905 56.0863H84.9424C86.9869 56.0863 88.8953 56.6954 90.4927 57.7323V56.6047H95.2297V66.3866ZM90.4959 67.4656V65.3141C89.9937 62.7123 87.6868 60.7359 84.9456 60.7359H84.8938C81.7898 60.7553 79.2754 63.2858 79.2754 66.3898C79.2754 69.4939 81.7898 72.0276 84.8938 72.0633H84.9456C87.6868 72.0633 89.9905 70.0706 90.4959 67.4688V67.4656Z" fill="white"/>
<path d="M72.9965 66.3865V76.1166H68.2627V75.0408C66.6491 76.0809 64.7602 76.6901 62.7124 76.6901H62.6606C57.0066 76.6544 52.4121 72.0405 52.4121 66.3865C52.4121 60.7325 57.0066 56.1219 62.6606 56.0862H62.7124C64.7602 56.0862 66.6491 56.6954 68.2627 57.7322V49.9138H72.9965V66.3865ZM68.2627 67.4655V65.314C67.7605 62.7122 65.4503 60.7358 62.7124 60.7358H62.6606C59.5565 60.7552 57.0422 63.2857 57.0422 66.3898C57.0422 69.4938 59.5565 72.0275 62.6606 72.0632H62.7124C65.4503 72.0632 67.7605 70.0705 68.2627 67.4687V67.4655Z" fill="white"/>
<path d="M62.6605 40.5823L68.2432 49.9138H62.6605H45.3842L32.6927 28.7884L32.1387 27.8682L32.6927 27.5409L48.9419 17.759L62.6605 40.5823Z" fill="white"/>
<path d="M50.5556 56.0863H45.4038V76.1166H50.5556V56.0863Z" fill="white"/>
<path d="M50.5556 50.0176H45.4038V54.544H50.5556V50.0176Z" fill="white"/>
<path d="M43.0449 66.3865V76.1166H38.3111V75.0408C36.6976 76.0809 34.7924 76.6901 32.7446 76.6901H32.6928C27.0388 76.6544 22.4443 72.0405 22.4443 66.3865C22.4443 60.7325 27.042 56.1219 32.6928 56.0862H32.7446C34.7924 56.0862 36.7008 56.6954 38.3111 57.7322V49.9138H43.0449V66.3865ZM38.3111 67.4655V65.314C37.8089 62.7122 35.502 60.7358 32.7446 60.7358H32.6928C29.5888 60.7552 27.0744 63.2857 27.0744 66.3898C27.0744 69.4938 29.5888 72.0275 32.6928 72.0632H32.7446C35.502 72.0632 37.8089 70.0705 38.3111 67.4687V67.4655Z" fill="white"/>
<path d="M32.6928 42.1084L37.3747 49.9138H32.6928H14.4996L11.9302 45.6304L28.7366 35.5342L32.6928 42.1084Z" fill="white"/>
<path d="M20.5844 66.3866V76.1166H15.8506V75.0409C14.237 76.081 12.3286 76.6901 10.2841 76.6901H10.2323C4.59771 76.6545 0 72.0406 0 66.3866C0 60.7326 4.59447 56.1219 10.2323 56.0863H10.2841C12.3286 56.0863 14.237 56.6954 15.8506 57.7323V56.6047H20.5844V66.3866ZM15.8506 67.4656V65.3141C15.3484 62.7123 13.0414 60.7359 10.2841 60.7359H10.2323C7.14443 60.7553 4.63335 63.2858 4.63335 66.3898C4.63335 69.4939 7.14767 72.0276 10.2323 72.0633H10.2841C13.0414 72.0633 15.3484 70.0706 15.8506 67.4688V67.4656Z" fill="white"/>
</svg>
