<svg width="171" height="114" viewBox="0 0 171 114" fill="none" xmlns="http://www.w3.org/2000/svg">
<path d="M170.023 92.3776H162.569C162.338 91.1431 161.978 90.2689 161.488 89.779C160.69 88.9816 159.331 88.5685 157.453 88.5685C155.575 88.5685 154.316 88.8759 153.601 89.4956C153.058 89.9567 152.775 90.6003 152.775 91.3977C152.775 92.5265 154.345 93.4295 157.453 94.1212C161.003 94.8897 163.548 95.5622 165.114 96.1002C165.527 96.2539 165.888 96.3835 166.142 96.5132C169.308 98.0071 170.874 100.269 170.874 103.3C170.874 107.004 169.332 109.703 166.272 111.399C165.888 111.605 165.527 111.783 165.114 111.966C163.135 112.816 160.82 113.248 158.226 113.248C154.345 113.248 151.204 112.552 148.817 111.192C147.313 110.318 146.189 109.218 145.44 107.892C144.691 106.567 144.316 105.02 144.316 103.248H152.131C152.131 104.583 152.621 105.64 153.572 106.36C154.523 107.105 156.147 107.494 158.433 107.494C160.157 107.494 161.44 107.133 162.29 106.413C162.958 105.846 163.265 105.226 163.265 104.511C163.265 103.3 161.723 102.354 158.663 101.682C154.086 100.702 151.209 99.9044 150.027 99.3376C146.89 97.8726 145.349 95.6102 145.349 92.4736C145.349 89.9567 146.146 87.824 147.789 86.0756C149.845 83.8901 152.928 82.8093 157.021 82.8093C160.388 82.8093 163.087 83.2993 165.119 84.2503C165.297 84.3272 165.455 84.404 165.609 84.5097C167.074 85.3023 168.179 86.359 168.919 87.6751C169.658 88.9816 170.028 90.5523 170.028 92.3776H170.023Z" fill="white"/>
<path d="M166.037 74.1732C166.037 74.0195 166.013 73.8898 165.936 73.7889C165.859 73.6592 165.758 73.5823 165.604 73.5343C165.503 73.5055 165.345 73.4815 165.114 73.4527H163.933V74.8937H165.114C165.451 74.8696 165.681 74.8168 165.811 74.6871C165.964 74.5574 166.041 74.3749 166.041 74.1732H166.037ZM166.656 73.3998C166.81 73.6064 166.887 73.8369 166.887 74.0963C166.887 74.4566 166.757 74.764 166.502 75.0233C166.248 75.2827 165.912 75.4364 165.503 75.4605C165.681 75.5373 165.811 75.6142 165.916 75.715L166.637 76.6661L167.204 77.6171H166.277L165.84 76.8486C165.561 76.3635 165.33 75.9984 165.119 75.8207C165.095 75.7967 165.066 75.7679 165.018 75.7438L164.403 75.5661H163.942V77.622H163.169V72.7898H164.84C164.946 72.7898 165.047 72.8138 165.124 72.8138C165.537 72.8138 165.844 72.8667 166.051 72.9435C166.306 73.0204 166.512 73.1741 166.671 73.4046L166.656 73.3998Z" fill="white"/>
<path d="M168.842 75.1529C168.842 74.4852 168.688 73.8656 168.352 73.2748C168.016 72.684 167.554 72.2229 166.964 71.8866C166.373 71.5792 165.753 71.3967 165.138 71.3967H165.114C164.495 71.3967 163.88 71.5792 163.294 71.8866C162.698 72.2229 162.237 72.684 161.901 73.2748C161.569 73.8656 161.387 74.4852 161.387 75.1529C161.387 75.8206 161.565 76.4114 161.901 77.0022C162.213 77.5642 162.674 78.0301 163.265 78.3615C163.856 78.6978 164.475 78.8515 165.114 78.8515H165.138C165.782 78.8515 166.397 78.6978 166.992 78.3615C167.583 78.0301 168.044 77.5642 168.352 77.0022C168.688 76.4066 168.842 75.7917 168.842 75.1529ZM169.586 75.1529C169.586 75.8974 169.404 76.6467 168.991 77.3624C168.606 78.0829 168.064 78.6209 167.348 79.0052C166.627 79.4183 165.907 79.6008 165.134 79.6008H165.109C164.341 79.6008 163.62 79.4231 162.9 79.0052C162.179 78.6209 161.641 78.0781 161.252 77.3624C160.839 76.6419 160.662 75.8974 160.662 75.1529C160.662 74.3555 160.839 73.611 161.252 72.8905C161.666 72.17 162.203 71.6321 162.924 71.2478C163.644 70.8635 164.365 70.681 165.109 70.657H165.134C165.878 70.657 166.603 70.8635 167.319 71.2478C168.04 71.6369 168.606 72.1748 168.991 72.8905C169.404 73.611 169.586 74.3555 169.586 75.1529Z" fill="white"/>
<path d="M125.852 38.8205L146.962 73.9953H125.852H113.046L92.8914 40.3912L77.6216 14.9624L92.8914 5.78321L102.508 0L125.852 38.8205Z" fill="white"/>
<path d="M141.175 98.4155V112.84H134.152V111.245C131.784 112.787 128.96 113.69 125.924 113.69H125.847C117.465 113.637 110.654 106.797 110.654 98.4155C110.654 90.0337 117.47 83.1986 125.847 83.1458H125.924C128.955 83.1458 131.784 84.0488 134.152 85.5858V83.9143H141.175V98.4155ZM134.157 100.015V96.8256C133.412 92.9686 129.993 90.0385 125.929 90.0385H125.852C121.25 90.0673 117.523 93.8187 117.523 98.4203C117.523 103.022 121.25 106.778 125.852 106.831H125.929C129.993 106.831 133.408 103.877 134.157 100.02V100.015Z" fill="white"/>
<path d="M108.214 98.4155V112.84H101.197V111.245C98.8046 112.787 96.0042 113.69 92.9685 113.69H92.8917C84.5099 113.637 77.6987 106.797 77.6987 98.4155C77.6987 90.0337 84.5099 83.1985 92.8917 83.1457H92.9685C96.0042 83.1457 98.8046 84.0487 101.197 85.5858V73.9954H108.214V98.4155ZM101.197 100.015V96.8256C100.452 92.9685 97.0273 90.0385 92.9685 90.0385H92.8917C88.2901 90.0673 84.5627 93.8187 84.5627 98.4203C84.5627 103.022 88.2901 106.778 92.8917 106.831H92.9685C97.0273 106.831 100.452 103.877 101.197 100.02V100.015Z" fill="white"/>
<path d="M92.8914 60.1618L101.168 73.9954H92.8914H67.2801L48.4654 42.6777L47.644 41.3135L48.4654 40.8284L72.5541 26.3271L92.8914 60.1618Z" fill="white"/>
<path d="M74.9464 83.1458H67.3091V112.84H74.9464V83.1458Z" fill="white"/>
<path d="M74.9464 74.1492H67.3091V80.8594H74.9464V74.1492Z" fill="white"/>
<path d="M63.812 98.4155V112.84H56.7944V111.245C54.4023 112.787 51.578 113.69 48.5423 113.69H48.4654C40.0836 113.637 33.2725 106.797 33.2725 98.4155C33.2725 90.0337 40.0884 83.1985 48.4654 83.1457H48.5423C51.578 83.1457 54.4071 84.0487 56.7944 85.5858V73.9954H63.812V98.4155ZM56.7944 100.015V96.8256C56.0499 92.9685 52.6299 90.0385 48.5423 90.0385H48.4654C43.8638 90.0673 40.1364 93.8187 40.1364 98.4203C40.1364 103.022 43.8638 106.778 48.4654 106.831H48.5423C52.6299 106.831 56.0499 103.877 56.7944 100.02V100.015Z" fill="white"/>
<path d="M48.4658 62.4239L55.4066 73.9952H48.4658H21.4951L17.686 67.6452L42.6009 52.678L48.4658 62.4239Z" fill="white"/>
<path d="M30.5156 98.4155V112.84H23.4979V111.245C21.1058 112.787 18.2767 113.69 15.2458 113.69H15.1689C6.81593 113.637 0 106.797 0 98.4155C0 90.0337 6.81112 83.1986 15.1689 83.1458H15.2458C18.2767 83.1458 21.1058 84.0488 23.4979 85.5858V83.9143H30.5156V98.4155ZM23.4979 100.015V96.8256C22.7534 92.9686 19.3334 90.0385 15.2458 90.0385H15.1689C10.5913 90.0673 6.86876 93.8187 6.86876 98.4203C6.86876 103.022 10.5961 106.778 15.1689 106.831H15.2458C19.3334 106.831 22.7534 103.877 23.4979 100.02V100.015Z" fill="white"/>
</svg>
