<svg width="171" height="114" viewBox="0 0 171 114" fill="none" xmlns="http://www.w3.org/2000/svg">
<path d="M170.023 92.3778H162.569C162.338 91.1434 161.978 90.2691 161.488 89.7792C160.691 88.9819 159.331 88.5688 157.453 88.5688C155.575 88.5688 154.317 88.8762 153.601 89.4958C153.058 89.9569 152.775 90.6006 152.775 91.3979C152.775 92.5267 154.345 93.4297 157.453 94.1214C161.003 94.8899 163.549 95.5624 165.114 96.1004C165.528 96.2541 165.888 96.3838 166.142 96.5135C169.308 98.0073 170.874 100.27 170.874 103.301C170.874 107.004 169.332 109.703 166.272 111.399C165.888 111.606 165.528 111.783 165.114 111.966C163.136 112.816 160.82 113.248 158.227 113.248C154.345 113.248 151.204 112.552 148.817 111.192C147.313 110.318 146.189 109.218 145.44 107.893C144.691 106.567 144.316 105.02 144.316 103.248H152.131C152.131 104.583 152.621 105.64 153.572 106.36C154.523 107.105 156.147 107.494 158.433 107.494C160.157 107.494 161.44 107.134 162.29 106.413C162.958 105.846 163.265 105.227 163.265 104.511C163.265 103.301 161.723 102.354 158.664 101.682C154.086 100.702 151.209 99.9046 150.027 99.3378C146.891 97.8728 145.349 95.6105 145.349 92.4739C145.349 89.9569 146.146 87.8242 147.789 86.0758C149.845 83.8903 152.928 82.8096 157.021 82.8096C160.388 82.8096 163.087 83.2995 165.119 84.2506C165.297 84.3274 165.456 84.4043 165.609 84.51C167.074 85.3025 168.179 86.3592 168.919 87.6753C169.658 88.9819 170.028 90.5525 170.028 92.3778H170.023Z" fill="white"/>
<path d="M166.037 74.1729C166.037 74.0192 166.013 73.8895 165.936 73.7886C165.859 73.659 165.758 73.5821 165.604 73.5341C165.504 73.5052 165.345 73.4812 165.114 73.4524H163.933V74.8934H165.114C165.451 74.8694 165.681 74.8166 165.811 74.6869C165.965 74.5572 166.042 74.3747 166.042 74.1729H166.037ZM166.656 73.3996C166.81 73.6061 166.887 73.8367 166.887 74.0961C166.887 74.4563 166.757 74.7637 166.503 75.0231C166.248 75.2825 165.912 75.4362 165.504 75.4602C165.681 75.5371 165.811 75.6139 165.917 75.7148L166.637 76.6658L167.204 77.6169H166.277L165.84 76.8484C165.561 76.3632 165.331 75.9982 165.119 75.8205C165.095 75.7964 165.066 75.7676 165.018 75.7436L164.404 75.5659H163.942V77.6217H163.169V72.7896H164.841C164.946 72.7896 165.047 72.8136 165.124 72.8136C165.537 72.8136 165.845 72.8664 166.051 72.9433C166.306 73.0201 166.512 73.1738 166.671 73.4044L166.656 73.3996Z" fill="white"/>
<path d="M168.842 75.1531C168.842 74.4855 168.688 73.8659 168.352 73.275C168.016 72.6842 167.555 72.2231 166.964 71.8869C166.373 71.5795 165.753 71.3969 165.139 71.3969H165.115C164.495 71.3969 163.88 71.5795 163.294 71.8869C162.698 72.2231 162.237 72.6842 161.901 73.275C161.57 73.8659 161.387 74.4855 161.387 75.1531C161.387 75.8208 161.565 76.4116 161.901 77.0024C162.213 77.5644 162.674 78.0303 163.265 78.3618C163.856 78.698 164.476 78.8517 165.115 78.8517H165.139C165.782 78.8517 166.397 78.698 166.993 78.3618C167.583 78.0303 168.045 77.5644 168.352 77.0024C168.688 76.4068 168.842 75.792 168.842 75.1531ZM169.586 75.1531C169.586 75.8977 169.404 76.647 168.991 77.3627C168.607 78.0832 168.064 78.6211 167.348 79.0054C166.628 79.4185 165.907 79.601 165.134 79.601H165.11C164.341 79.601 163.621 79.4233 162.9 79.0054C162.18 78.6211 161.642 78.0784 161.253 77.3627C160.84 76.6422 160.662 75.8977 160.662 75.1531C160.662 74.3558 160.84 73.6113 161.253 72.8908C161.666 72.1703 162.204 71.6323 162.924 71.248C163.645 70.8638 164.365 70.6812 165.11 70.6572H165.134C165.878 70.6572 166.604 70.8638 167.319 71.248C168.04 71.6371 168.607 72.1751 168.991 72.8908C169.404 73.6113 169.586 74.3558 169.586 75.1531Z" fill="white"/>
<path d="M125.852 38.8205L146.963 73.9953H125.852H113.046L92.8916 40.3912L77.6218 14.9624L92.8916 5.78321L102.508 0L125.852 38.8205Z" fill="white"/>
<path d="M141.175 98.4153V112.84H134.152V111.245C131.784 112.787 128.96 113.69 125.924 113.69H125.847C117.465 113.637 110.654 106.797 110.654 98.4153C110.654 90.0335 117.47 83.1983 125.847 83.1455H125.924C128.955 83.1455 131.784 84.0485 134.152 85.5856V83.914H141.175V98.4153ZM134.157 100.015V96.8254C133.413 92.9683 129.993 90.0383 125.929 90.0383H125.852C121.25 90.0671 117.523 93.8185 117.523 98.4201C117.523 103.022 121.25 106.778 125.852 106.831H125.929C129.993 106.831 133.408 103.877 134.157 100.02V100.015Z" fill="white"/>
<path d="M108.214 98.4153V112.84H101.197V111.245C98.8045 112.787 96.0042 113.69 92.9685 113.69H92.8916C84.5098 113.637 77.6987 106.797 77.6987 98.4153C77.6987 90.0334 84.5098 83.1983 92.8916 83.1455H92.9685C96.0042 83.1455 98.8045 84.0485 101.197 85.5856V73.9951H108.214V98.4153ZM101.197 100.015V96.8253C100.452 92.9683 97.0273 90.0382 92.9685 90.0382H92.8916C88.29 90.0671 84.5627 93.8185 84.5627 98.4201C84.5627 103.022 88.29 106.778 92.8916 106.831H92.9685C97.0273 106.831 100.452 103.877 101.197 100.02V100.015Z" fill="white"/>
<path d="M92.8916 60.1618L101.168 73.9954H92.8916H67.2802L48.4656 42.6777L47.6442 41.3135L48.4656 40.8284L72.5543 26.3271L92.8916 60.1618Z" fill="white"/>
<path d="M74.9464 83.1455H67.3091V112.84H74.9464V83.1455Z" fill="white"/>
<path d="M74.9464 74.1489H67.3091V80.8592H74.9464V74.1489Z" fill="white"/>
<path d="M63.8123 98.4153V112.84H56.7946V111.245C54.4025 112.787 51.5782 113.69 48.5425 113.69H48.4656C40.0838 113.637 33.2727 106.797 33.2727 98.4153C33.2727 90.0334 40.0886 83.1983 48.4656 83.1455H48.5425C51.5782 83.1455 54.4073 84.0485 56.7946 85.5856V73.9951H63.8123V98.4153ZM56.7946 100.015V96.8253C56.0501 92.9683 52.6301 90.0382 48.5425 90.0382H48.4656C43.864 90.0671 40.1366 93.8185 40.1366 98.4201C40.1366 103.022 43.864 106.778 48.4656 106.831H48.5425C52.6301 106.831 56.0501 103.877 56.7946 100.02V100.015Z" fill="white"/>
<path d="M48.4656 62.4242L55.4064 73.9954H48.4656H21.4949L17.6859 67.6454L42.6007 52.6782L48.4656 62.4242Z" fill="white"/>
<path d="M30.5156 98.4153V112.84H23.4979V111.245C21.1058 112.787 18.2767 113.69 15.2458 113.69H15.1689C6.81593 113.637 0 106.797 0 98.4153C0 90.0335 6.81112 83.1983 15.1689 83.1455H15.2458C18.2767 83.1455 21.1058 84.0485 23.4979 85.5856V83.914H30.5156V98.4153ZM23.4979 100.015V96.8254C22.7534 92.9683 19.3334 90.0383 15.2458 90.0383H15.1689C10.5913 90.0671 6.86876 93.8185 6.86876 98.4201C6.86876 103.022 10.5961 106.778 15.1689 106.831H15.2458C19.3334 106.831 22.7534 103.877 23.4979 100.02V100.015Z" fill="white"/>
</svg>
