<svg width="185" height="56" viewBox="0 0 185 56" fill="none" xmlns="http://www.w3.org/2000/svg">
<mask id="mask0_1_839" style="mask-type:luminance" maskUnits="userSpaceOnUse" x="0" y="0" width="185" height="56">
<path d="M184.334 0.377563H0.28125V55.4627H184.334V0.377563Z" fill="white"/>
</mask>
<g mask="url(#mask0_1_839)">
<path d="M114.439 43.4117C103.756 51.2198 88.2719 55.3857 74.9402 55.3857C56.2475 55.3857 39.4189 48.53 26.6876 37.1273C25.6873 36.2307 26.5835 35.0087 27.7838 35.7069C41.5233 43.634 58.5121 48.4029 76.0607 48.4029C87.8957 48.4029 100.915 45.9749 112.886 40.9362C114.695 40.1744 116.207 42.1104 114.439 43.4117Z" fill="#FF9900"/>
<path d="M118.88 38.3728C117.52 36.6431 109.853 37.5555 106.413 37.9603C105.364 38.0874 105.204 37.1825 106.148 36.532C112.254 32.2709 122.273 33.5008 123.441 34.9291C124.609 36.3654 123.137 46.3236 117.4 51.0768C116.519 51.8068 115.679 51.4181 116.071 50.45C117.359 47.2602 120.248 40.1106 118.88 38.3728Z" fill="#FF9900"/>
<path d="M106.653 6.45118V2.30913C106.653 1.68227 107.133 1.26172 107.709 1.26172H126.41C127.01 1.26172 127.49 1.6902 127.49 2.30913V5.85606C127.482 6.45118 126.978 7.22881 126.082 8.45869L116.391 22.1782C119.992 22.0909 123.793 22.6226 127.058 24.4476C127.794 24.8602 127.994 25.4633 128.05 26.0584V30.4782C128.05 31.0812 127.378 31.7875 126.674 31.4224C120.92 28.431 113.278 28.1056 106.917 31.4542C106.269 31.8033 105.588 31.105 105.588 30.502V26.3044C105.588 25.6299 105.596 24.4793 106.277 23.4558L117.504 7.49063H107.733C107.133 7.49063 106.653 7.0701 106.653 6.45118Z" fill="#221F1F"/>
<path d="M38.4349 32.2949H32.7453C32.2011 32.2553 31.769 31.8506 31.729 31.3348V2.38021C31.729 1.80096 32.2171 1.34073 32.8253 1.34073H38.1308C38.683 1.36452 39.1229 1.78508 39.163 2.30879V6.09376H39.2672C40.6512 2.43575 43.2519 0.729736 46.757 0.729736C50.318 0.729736 52.5425 2.43575 54.143 6.09376C55.5193 2.43575 58.6482 0.729736 62.0009 0.729736C64.3855 0.729736 66.9943 1.70573 68.5867 3.89578C70.3871 6.33179 70.019 9.87079 70.019 12.9733L70.0113 31.2475C70.0113 31.8268 69.5228 32.2949 68.9147 32.2949H63.2333C62.665 32.2553 62.2089 31.803 62.2089 31.2475V15.9014C62.2089 14.6794 62.3212 11.6324 62.0492 10.4738C61.6247 8.5298 60.3526 7.98228 58.7042 7.98228C57.3278 7.98228 55.8875 8.89478 55.3033 10.3548C54.7191 11.8149 54.775 14.2588 54.775 15.9014V31.2475C54.775 31.8268 54.2869 32.2949 53.6788 32.2949H47.9971C47.421 32.2553 46.9731 31.803 46.9731 31.2475L46.965 15.9014C46.965 12.6718 47.5013 7.9188 43.4602 7.9188C39.371 7.9188 39.5311 12.5528 39.5311 15.9014V31.2475C39.5311 31.8268 39.043 32.2949 38.4349 32.2949Z" fill="#221F1F"/>
<path d="M143.59 0.729736C152.032 0.729736 156.601 7.9188 156.601 17.0598C156.601 25.8914 151.552 32.898 143.59 32.898C135.3 32.898 130.787 25.7089 130.787 16.7504C130.787 7.73629 135.356 0.729736 143.59 0.729736ZM143.638 6.64128C139.445 6.64128 139.181 12.3068 139.181 15.8379C139.181 19.3768 139.125 26.9309 143.59 26.9309C147.999 26.9309 148.207 20.8369 148.207 17.1233C148.207 14.6794 148.103 11.7593 147.359 9.4423C146.719 7.42683 145.446 6.64128 143.638 6.64128Z" fill="#221F1F"/>
<path d="M167.549 32.2949H161.883C161.315 32.2553 160.859 31.803 160.859 31.2475L160.851 2.28498C160.899 1.75334 161.371 1.34073 161.947 1.34073H167.221C167.717 1.36452 168.125 1.6978 168.237 2.15009V6.57777H168.341C169.933 2.61825 172.166 0.729736 176.095 0.729736C178.648 0.729736 181.137 1.64225 182.737 4.14177C184.225 6.45878 184.225 10.3548 184.225 13.1559V31.3824C184.161 31.8903 183.689 32.2949 183.129 32.2949H177.424C176.903 32.2553 176.471 31.8744 176.415 31.3824V15.6554C176.415 12.4893 176.783 7.85533 172.854 7.85533C171.47 7.85533 170.198 8.77578 169.565 10.1723C168.765 11.9418 168.661 13.7034 168.661 15.6554V31.2475C168.653 31.8268 168.157 32.2949 167.549 32.2949Z" fill="#221F1F"/>
<path d="M91.7447 18.464V17.242C87.6319 17.242 83.2864 18.1148 83.2864 22.9234C83.2864 25.3594 84.5589 27.0099 86.7436 27.0099C88.3438 27.0099 89.7764 26.0339 90.6805 24.4469C91.8006 22.4949 91.7447 20.6619 91.7447 18.464ZM97.4823 32.2152C97.1061 32.5485 96.5621 32.5723 96.138 32.3501C94.2493 30.7949 93.9132 30.0728 92.8729 28.589C89.7521 31.7471 87.5435 32.6913 83.4947 32.6913C78.7094 32.6913 74.9805 29.7633 74.9805 23.8994C74.9805 19.321 77.4851 16.2025 81.0461 14.679C84.1349 13.3301 88.4479 13.092 91.7447 12.7191V11.9891C91.7447 10.6481 91.8489 9.06108 91.0567 7.90259C90.3602 6.8631 89.0321 6.43461 87.8638 6.43461C85.6953 6.43461 83.7587 7.53758 83.2864 9.82283C83.1907 10.3307 82.8145 10.8306 82.3024 10.8544L76.7809 10.2672C76.3167 10.164 75.8047 9.79107 75.9328 9.08488C77.2049 2.45127 83.2466 0.45166 88.6559 0.45166C91.4248 0.45166 95.0418 1.18167 97.2261 3.26063C99.995 5.82361 99.7307 9.24358 99.7307 12.9651V21.757C99.7307 24.3993 100.835 25.5578 101.875 26.9861C102.243 27.4939 102.324 28.1049 101.859 28.4858C100.699 29.446 98.6345 31.2313 97.4982 32.2311L97.4823 32.2152Z" fill="#221F1F"/>
<path d="M17.157 18.464V17.242C13.0439 17.242 8.69876 18.1148 8.69876 22.9234C8.69876 25.3594 9.97108 27.0099 12.1557 27.0099C13.7561 27.0099 15.1885 26.0339 16.0927 24.4469C17.213 22.4949 17.157 20.6619 17.157 18.464ZM22.8945 32.2152C22.5184 32.5485 21.9743 32.5723 21.5501 32.3501C19.6617 30.7949 19.3256 30.0728 18.2853 28.589C15.1644 31.7471 12.9559 32.6913 8.90682 32.6913C4.12157 32.6913 0.392578 29.7633 0.392578 23.8994C0.392578 19.321 2.89724 16.2025 6.45818 14.679C9.54699 13.3301 13.8601 13.092 17.157 12.7191V11.9891C17.157 10.6481 17.261 9.06108 16.4688 7.90259C15.7726 6.8631 14.4443 6.43461 13.276 6.43461C11.1074 6.43461 9.17089 7.53758 8.69876 9.82283C8.60273 10.3307 8.22663 10.8306 7.71449 10.8544L2.19305 10.2672C1.72893 10.164 1.21679 9.79107 1.34483 9.08488C2.61716 2.45127 8.65875 0.45166 14.0682 0.45166C16.8369 0.45166 20.4539 1.18167 22.6384 3.26063C25.4072 5.82361 25.1431 9.24358 25.1431 12.9651V21.757C25.1431 24.3993 26.2474 25.5578 27.2876 26.9861C27.6557 27.4939 27.7358 28.1049 27.2717 28.4858C26.1114 29.446 24.0468 31.2313 22.9105 32.2311L22.8945 32.2152Z" fill="#221F1F"/>
</g>
</svg>
