<svg width="121" height="35" viewBox="0 0 121 35" fill="none" xmlns="http://www.w3.org/2000/svg">
<path d="M92.0546 26.0103C88.6212 31.4994 83.884 34.7341 77.4268 34.9421C71.0425 35.1484 65.9504 32.5177 62.1221 27.2514C61.19 30.5026 59.0138 32.3741 56.1012 33.536C54.9434 33.9981 53.7574 34.3529 52.5284 34.5592C48.7532 35.1913 44.9946 35.221 41.2925 34.1268C38.2687 33.2323 35.9416 31.4482 34.4687 28.6327C34.4206 28.5403 34.3625 28.4545 34.1237 28.3786C34.1237 28.9612 34.1237 29.5437 34.1237 30.1263C34.1237 31.171 34.1104 32.2173 34.127 33.262C34.1369 33.8578 33.8649 34.1136 33.2777 34.1086C31.4267 34.0971 29.5739 34.0971 27.7228 34.0954C27.1771 34.0954 26.9433 33.8479 26.9283 33.2851C26.9151 32.7504 27.2037 31.9566 26.7741 31.7371C26.2682 31.478 25.8137 32.2041 25.3526 32.5111C20.1891 35.9422 13.3239 35.8415 7.80046 32.1117C-1.81489 25.6175 -1.52462 13.7449 3.20593 7.44214C6.25292 3.38226 10.2221 0.791193 15.3408 0.17561C19.1442 -0.281539 22.6207 0.702074 25.7938 2.80628C26.0011 2.94326 26.1985 3.09509 26.4108 3.22217C26.7426 3.42186 26.9333 3.33605 26.9383 2.93336C26.9383 2.82278 26.9416 2.71386 26.9399 2.60329C26.925 0.982635 26.7193 0.929824 28.6069 0.952929C30.1545 0.971083 31.7037 0.976034 33.2512 0.952929C33.8915 0.943026 34.1419 1.19718 34.1336 1.83257C34.1104 3.47633 34.1253 5.12008 34.1253 6.77044C34.472 6.75559 34.3974 6.49318 34.4587 6.3364C35.5551 3.55719 37.7081 1.93489 40.4698 1.09321C44.9084 -0.258434 49.3901 -0.395414 53.8254 1.09981C57.4895 2.33428 59.8514 4.85438 60.8582 8.59574C60.9213 8.83009 60.9959 9.05949 61.1021 9.40936C64.7644 3.57535 69.7537 0.0485322 76.7832 0.119498C83.8027 0.192113 88.8269 3.66282 92.3764 9.61071C92.4942 8.85979 92.5605 8.16499 92.7131 7.48835C93.365 4.60682 95.1547 2.60824 97.8534 1.55531C102.841 -0.390463 107.936 -0.557149 112.981 1.31931C116.693 2.70066 118.807 5.53267 119.648 9.3384C119.889 10.426 119.758 10.5597 118.6 10.5564C116.776 10.5498 114.951 10.5349 113.126 10.5333C112.655 10.5333 112.221 10.492 112.106 9.92758C111.367 6.25388 108.18 5.03591 104.76 5.36764C104.039 5.43695 103.345 5.60199 102.688 5.9106C100.151 7.10216 99.8504 10.2411 102.131 11.88C103.601 12.9362 105.346 13.296 107.064 13.6937C109.32 14.2169 111.612 14.5997 113.767 15.4975C116.661 16.7023 119.096 18.4088 120.295 21.4438C122.155 26.1473 120.246 30.9383 115.619 33.13C112 34.8447 108.144 35.1616 104.211 34.9025C102.105 34.7638 100.054 34.3628 98.1254 33.4617C95.2061 32.1001 93.3169 29.8474 92.3117 26.8256C92.2338 26.5929 92.1625 26.3569 92.053 26.0103H92.0546ZM86.3289 17.6348C86.3421 15.6329 86.0353 13.8587 85.2707 12.177C83.7032 8.72777 80.9714 6.84966 77.1979 6.65987C73.5853 6.47833 70.593 7.84648 68.7618 11.0152C66.4596 14.9991 66.4214 19.2323 68.3007 23.3615C71.1669 29.6609 80.2415 30.4415 84.2821 24.8023C85.8097 22.67 86.3256 20.2143 86.3305 17.6315L86.3289 17.6348ZM26.784 17.4978C26.7956 16.1164 26.648 14.7582 26.2997 13.4181C25.4057 9.97709 23.3124 7.69464 19.7811 6.92723C15.9827 6.10205 12.6322 6.92227 10.0977 10.0249C7.00098 13.8158 6.73559 20.2819 9.44421 24.3534C13.1431 29.9134 21.6604 29.9712 25.1137 24.4491C26.444 22.3234 26.7774 19.9436 26.784 17.4961V17.4978ZM34.1253 12.8751C34.1253 16.194 34.1336 19.4832 34.117 22.774C34.1137 23.307 34.4156 23.3301 34.8054 23.3351C36.5453 23.3565 38.2853 23.4094 40.0252 23.4011C40.6008 23.3995 40.8878 23.6024 41.0022 24.1537C41.6474 27.2959 43.7191 28.8671 46.7993 29.2648C48.657 29.5041 50.4882 29.4513 52.1883 28.4991C54.3562 27.286 55.6384 23.3796 52.1717 21.5197C51.1185 20.9553 50.0039 20.5724 48.8544 20.2687C46.2967 19.5937 43.6495 19.2917 41.1332 18.4583C38.1791 17.4796 35.5054 16.1313 34.3094 12.9758C34.2962 12.9395 34.2215 12.9263 34.127 12.8751H34.1253ZM93.9969 15.0321C93.9969 15.3193 93.9853 15.4282 93.9969 15.5338C94.2872 17.9945 94.065 20.414 93.3517 22.7839C93.1991 23.2938 93.4512 23.345 93.8377 23.3499C95.44 23.3681 97.0439 23.4094 98.6462 23.4044C99.1787 23.4028 99.4855 23.5843 99.5867 24.1042C100.2 27.2613 102.252 28.8473 105.339 29.2566C107.285 29.514 109.215 29.4992 110.94 28.3819C113.614 26.649 113.533 23.1469 110.791 21.5593C110.293 21.2705 109.759 21.0312 109.219 20.8265C107.457 20.1614 105.604 19.8429 103.768 19.46C100.242 18.7256 96.7354 17.9417 93.9936 15.0321H93.9969ZM60.6426 10.5333C58.5809 10.5333 56.6253 10.5118 54.6714 10.5448C53.9449 10.5564 53.5717 10.3352 53.4091 9.5843C53.1288 8.28217 52.467 7.15167 51.3109 6.43707C49.0368 5.03096 46.5803 4.90059 44.1637 5.91226C41.4849 7.03285 41.251 10.3022 43.6362 11.9559C44.4854 12.545 45.4458 12.8867 46.4277 13.1738C48.1511 13.6788 49.9242 13.9677 51.6658 14.3901C54.3828 15.0486 56.9753 16.0124 59.3041 17.9615C59.2178 15.3011 59.7088 12.9312 60.6409 10.5333H60.6426Z" fill="white"/>
</svg>
