<svg width="134" height="54" viewBox="0 0 134 54" fill="none" xmlns="http://www.w3.org/2000/svg">
<g clip-path="url(#clip0_1_918)">
<mask id="mask0_1_918" style="mask-type:luminance" maskUnits="userSpaceOnUse" x="0" y="0" width="134" height="54">
<path d="M134 0H0V53.8297H134V0Z" fill="white"/>
</mask>
<g mask="url(#mask0_1_918)">
<path d="M84.8528 28.5638C78.762 28.7744 74.9813 29.8974 74.9813 33.8977C74.9813 36.4945 77.0817 39.3017 82.3323 39.3017C89.4035 39.3017 93.1139 35.4417 93.1139 29.1253V28.4236C90.6636 28.4236 87.5832 28.4937 84.8528 28.5638ZM99.8351 36.9155C99.8351 38.8808 99.9051 40.7756 100.045 42.5302H93.8142C93.6741 41.1265 93.6041 39.6526 93.6041 38.3193C90.2437 42.4601 86.1829 43.6532 80.6522 43.6532C72.3209 43.6532 67.9102 39.3017 67.9102 34.1785C67.9102 26.8094 73.9313 24.2828 84.3627 24.0021C87.2332 23.9319 90.4538 23.9319 93.1139 23.9319V23.2301C93.1139 18.3173 89.9636 16.2821 84.5028 16.2821C80.4421 16.2821 77.5016 17.9664 77.1516 20.8439H70.0807C70.8507 13.6151 78.4117 11.7904 85.063 11.7904C93.044 11.7904 99.7652 14.6679 99.7652 23.0897V36.9155H99.8351Z" fill="#F5AF02"/>
<path d="M26.744 24.9848C26.464 18.6684 21.9833 16.3524 17.0826 16.3524C11.9018 16.2822 7.70114 18.9491 7.00104 24.9848H26.744ZM6.86101 29.4764C7.21108 35.5822 11.4117 39.2316 17.2226 39.2316C21.2132 39.2316 24.7837 37.6175 25.9739 34.0382H32.905C31.5047 41.1968 23.8736 43.6532 17.2926 43.6532C5.32079 43.6532 0 37.056 0 28.1428C0 18.3175 5.46082 11.8607 17.3626 11.8607C26.8139 11.8607 33.8152 16.8437 33.8152 27.6517V29.4764H6.86101Z" fill="#E53238"/>
<path d="M51.0376 39.0213C57.2683 39.0213 61.5392 34.5296 61.5392 27.7219C61.5392 20.9142 57.2683 16.4226 51.0376 16.4226C44.8066 16.4226 40.536 20.9142 40.536 27.7219C40.536 34.5296 44.8066 39.0213 51.0376 39.0213ZM33.8148 0H40.536V16.9139C43.8265 12.9837 48.3771 11.8608 52.8578 11.8608C60.349 11.8608 68.68 16.9139 68.68 27.8624C68.68 36.986 62.099 43.6532 52.7876 43.6532C47.887 43.6532 43.3363 41.8986 40.4658 38.4598C40.4658 39.8633 40.3958 41.267 40.2559 42.6004H33.605C33.7449 40.4949 33.8148 37.8282 33.8148 35.6524V0Z" fill="#0064D2"/>
<path d="M134 12.9836L113.207 53.8998H105.716L111.667 42.5302L96.0542 12.9836H103.895L115.377 36.0736L126.859 12.9836H134Z" fill="#86B817"/>
</g>
</g>
<defs>
<clipPath id="clip0_1_918">
<rect width="134" height="54" fill="white"/>
</clipPath>
</defs>
</svg>
