<svg width="17" height="17" viewBox="0 0 17 17" fill="none" xmlns="http://www.w3.org/2000/svg">
<path d="M15.1404 6.95938C15.1404 6.95938 14.3435 7.70312 12.9888 8.57969C12.617 6.42812 11.581 3.77187 9.56228 0.53125C9.56228 0.53125 8.89822 4.01094 6.69353 7.27812C5.73728 5.79063 5.31228 4.62187 5.31228 4.62187C-1.59397 11.5547 4.14353 16.4688 7.75603 16.4688C12.3779 16.4688 16.442 14.2375 15.1404 6.95938Z" fill="#FF9D33"/>
<path d="M12.4048 13.1218C12.8032 12.2452 13.0954 11.103 13.1485 9.66865C13.1485 9.66865 12.5907 10.1468 11.6345 10.7577C11.3688 9.32334 10.6517 7.57021 9.24385 5.39209C9.24385 5.39209 8.79228 7.70303 7.25166 9.90771C6.5876 8.9249 6.29541 8.12803 6.29541 8.12803C5.15322 9.93428 4.70166 11.3687 4.6751 12.5108C4.0376 12.2718 3.63916 12.0858 3.63916 12.0858C4.72822 15.3265 6.98604 16.0437 7.99541 16.0437C9.80166 16.0437 11.6345 15.5124 13.4407 12.9358C13.4407 12.9093 13.0423 13.0155 12.4048 13.1218Z" fill="#FFCE31"/>
<path d="M5.81709 11.6609C5.81709 11.6609 6.56084 12.6703 7.11866 12.4312C7.11866 12.4312 8.18116 10.7578 9.72178 9.82812C9.72178 9.82812 9.40303 12.3781 9.77491 12.8297C10.253 13.4406 11.5546 12.1656 11.5546 12.1656C11.5546 13.6797 9.90772 15.5656 8.42022 15.5656C6.98584 15.5656 4.91397 13.9187 5.81709 11.6609Z" fill="#FFDF85"/>
<path d="M13.2283 4.80781C13.7861 4.01094 14.1579 3.16094 14.1579 3.16094C15.0876 4.70156 14.5298 5.63125 14.1314 5.92344C13.5736 6.34844 12.5908 5.7375 13.2283 4.80781ZM3.08139 4.54219C2.52357 3.6125 2.47045 2.44375 2.47045 2.44375C1.14232 4.43594 1.64701 5.55156 2.09857 5.87031C2.68295 6.32188 3.69232 5.63125 3.08139 4.54219ZM6.16264 2.47031C6.24232 1.83281 5.9767 1.19531 5.9767 1.19531C7.22514 2.01875 7.22514 2.70938 7.06576 3.00156C6.8267 3.34687 6.08295 3.1875 6.16264 2.47031Z" fill="#FF9D33"/>
</svg>
