<svg width="124" height="59" viewBox="0 0 124 59" fill="none" xmlns="http://www.w3.org/2000/svg">
<mask id="mask0_1_1254" style="mask-type:luminance" maskUnits="userSpaceOnUse" x="0" y="0" width="124" height="59">
<path d="M124 0H0V58.8898H124V0Z" fill="white"/>
</mask>
<g mask="url(#mask0_1_1254)">
<path d="M13.3128 4.5479V21.2132C13.3128 21.2132 19.1856 21.2132 22.328 20.9708C24.7999 20.5427 25.2524 20.3003 25.7047 17.8284L26.6176 14.2094H29.2995L28.8471 22.1179L29.0894 30.2204H26.3751L25.7047 27.0618C25.0341 24.808 24.1213 24.3475 22.328 24.1375C20.0742 23.8951 13.3128 23.8951 13.3128 23.8951V37.8704C13.3128 40.5605 14.678 41.7075 17.8204 41.7075H27.288C30.2124 41.7075 33.1365 41.4652 34.9623 37.1998L37.4101 31.7795H39.68C39.4457 32.9104 38.3148 42.8304 38.1047 45.0681C38.1047 45.0681 29.5418 44.8499 25.947 44.8499H9.70988L0.0322266 45.0681V42.6204L3.17464 41.9257C5.44461 41.4652 6.1151 40.7946 6.1151 38.9934C6.1151 38.9934 6.35745 32.9104 6.35745 22.7642C6.35745 12.6503 6.1151 6.55938 6.1151 6.55938C6.1151 4.53982 5.44461 4.08744 3.17464 3.63507L0.0322266 2.96457V0.49266L9.49985 0.686537H27.5223C31.125 0.686537 37.1918 0.0402832 37.1918 0.0402832C37.1918 0.0402832 36.9738 3.85318 36.7313 12.8684H34.2595L33.3548 9.70179C32.4662 5.6546 31.1171 3.63507 28.6289 3.63507H14.4599C13.3128 3.63507 13.3128 3.85318 13.3128 4.5479ZM49.8019 6.3251H52.5081V15.7927L61.7575 15.3403L61.3051 19.6299L52.2898 18.9351V35.6245C52.2898 40.3422 53.8733 42.168 56.5795 42.168C59.0352 42.168 60.8528 40.8028 61.5234 39.6719L62.8643 41.2551C61.5234 44.3975 57.7104 45.9808 54.0913 45.9808C49.608 45.9808 45.9648 43.291 45.9648 38.1127V19.1694H40.5847V16.9237C45.1003 16.4632 48.4609 13.757 49.8019 6.3251ZM69.1895 35.3822L70.991 39.6719C71.6613 41.4652 73.2448 43.291 76.8396 43.291C80.6767 43.291 82.2519 41.2551 82.2519 38.7833C82.2519 31.109 67.1537 33.3628 67.1537 23.0065C67.1537 17.1579 71.8796 14.4275 77.9623 14.4275C80.6767 14.4275 84.7238 14.8799 86.7596 15.7927C86.3072 18.0465 86.0647 20.9708 86.0647 23.2247L83.8352 23.4428L82.2519 18.9351C81.7996 17.8284 79.982 16.9156 77.7443 16.9156C75.0381 16.9156 72.3319 18.0465 72.3319 20.9708C72.3319 27.9504 87.8905 26.3833 87.8905 36.7475C87.8905 42.6204 82.7125 45.7628 76.3872 45.7628C71.6614 45.7628 66.9114 43.937 66.9114 43.937C67.3719 41.2551 67.1537 38.331 66.9114 35.3822H69.1895ZM86.7675 57.0076C87.4381 54.5358 87.8905 51.3934 88.3428 48.4446L90.8149 48.2267L91.7275 52.9523C91.9458 54.0832 92.6161 54.9881 94.4176 54.9881C97.342 54.9881 101.179 53.1946 104.79 46.8857C103.191 43.0484 98.4647 30.6727 94.1753 21.2051C93.0523 18.717 92.8344 18.4989 91.2752 18.0465L90.1282 17.6103V15.3323L96.9058 15.5746L105.226 15.1222V17.3761L103.191 17.8284C101.607 18.0465 100.961 18.9351 100.961 19.848C100.961 20.0822 100.961 20.3003 101.171 20.7527C101.607 22.1179 105.226 32.2398 107.932 39.0013C110.17 34.2757 114.46 23.6851 115.13 21.8837C115.372 20.9708 115.582 20.7527 115.582 20.0822C115.582 18.9351 114.912 18.2647 113.353 17.8284L111.753 17.3761V15.1222L118.079 15.3403L123.927 15.1222V17.3761L122.796 18.2647C120.551 19.1694 120.308 19.3875 119.42 21.2051L109.516 44.3894C103.643 57.6943 97.56 58.8252 93.2867 58.8252C90.5805 58.8252 88.5447 58.1305 86.7675 57.0076Z" fill="#F1641E"/>
</g>
</svg>
