<svg width="186" height="50" viewBox="0 0 186 50" fill="none" xmlns="http://www.w3.org/2000/svg">
<path d="M184.967 9.40336C184.947 9.33478 184.926 9.26621 184.899 9.19763C168.653 9.20449 152.415 9.19763 136.176 9.20449C136.135 9.25249 136.108 9.30049 136.101 9.36221C136.101 21.9595 136.101 34.5498 136.094 47.1471C136.197 47.8191 136.567 48.4294 137.061 48.8889C137.081 48.8958 137.129 48.9024 137.15 48.9094C137.404 49.1767 137.767 49.3072 138.11 49.4306C138.364 49.4169 138.611 49.5266 138.864 49.4992H159.025C159.217 49.4923 159.416 49.5266 159.601 49.4512C159.608 49.4239 159.615 49.3758 159.622 49.3484C159.629 49.3141 159.636 49.2386 159.643 49.1976C160.075 46.7838 160.493 44.363 160.952 41.9492L160.994 41.6407C159.128 41.6337 157.256 41.6407 155.391 41.6337C154.938 41.62 154.472 41.6337 154.019 41.5787C153.245 41.5444 152.463 41.5719 151.688 41.4965C150.728 41.4965 149.775 41.4073 148.815 41.4073C148.06 41.3319 147.299 41.3594 146.538 41.3251C146.044 41.2635 145.537 41.2908 145.036 41.2701C144.22 41.1811 143.391 41.2428 142.575 41.1536C141.71 41.1606 140.846 41.0851 139.982 41.0644C139.989 41.0576 139.996 41.0301 139.996 41.0233C140.284 41.0301 140.565 41.0096 140.853 41.0028C141.491 40.9204 142.136 40.9753 142.773 40.8861C143.439 40.8861 144.097 40.797 144.762 40.797C145.352 40.7147 145.948 40.7628 146.538 40.6804C147.231 40.6804 147.91 40.5913 148.602 40.5844C149.171 40.509 149.747 40.5501 150.317 40.4747C150.982 40.4815 151.64 40.3787 152.305 40.3856C152.957 40.31 153.622 40.3305 154.273 40.2619C154.212 40.0084 154.164 39.7546 154.109 39.5008C154.061 39.3431 153.869 39.3774 153.745 39.3568C152.257 39.144 150.776 38.9317 149.295 38.7259C149.391 38.6504 149.521 38.6847 149.631 38.671C150.783 38.5818 151.928 38.4789 153.08 38.3967C153.341 38.3831 153.595 38.335 153.855 38.3281C153.739 37.9716 153.67 37.5807 153.512 37.2516C151.051 36.8744 148.589 36.5384 146.134 36.1337C146.771 36.0309 147.416 35.9829 148.054 35.9144L148.109 35.8937C150.145 35.681 152.189 35.441 154.225 35.2422C156.811 35.2286 159.389 35.2353 161.974 35.2422C162.057 35.2286 162.201 35.2695 162.214 35.153C162.427 34.0422 162.633 32.9313 162.845 31.8203C163.14 30.2775 163.606 28.755 164.326 27.3493C165.458 25.0863 167.248 23.1662 169.428 21.8907C171.465 20.6975 173.824 20.1215 176.169 20.0118C176.931 19.9432 177.699 19.9638 178.453 20.0598C178.947 20.1764 179.454 20.3135 179.845 20.6495C180.167 20.9101 180.359 21.2941 180.503 21.6782C180.819 22.5902 180.997 23.5365 181.148 24.4897C181.155 24.8738 181.223 25.3058 181.018 25.6555C180.826 25.9984 180.442 26.163 180.078 26.2658C178.755 26.6087 177.369 26.2863 176.046 26.6087C174.956 26.8419 173.941 27.4453 173.248 28.3162C172.432 29.3311 172 30.5927 171.76 31.8547C171.575 32.9793 171.342 34.1039 171.156 35.2354C172.459 35.2424 173.769 35.2285 175.079 35.2424C175.6 35.2424 176.135 35.5303 176.348 36.024C176.622 36.655 176.56 37.3682 176.471 38.0333C176.361 38.7808 176.183 39.5213 175.847 40.2071C175.566 40.79 175.1 41.3249 174.462 41.5307C174.133 41.6609 173.776 41.6335 173.426 41.6335C172.274 41.6335 171.122 41.6472 169.97 41.6335C169.785 42.4771 169.662 43.341 169.497 44.1982C169.195 45.8645 168.9 47.5378 168.599 49.2111C168.592 49.266 168.585 49.3825 168.585 49.4442C169.127 49.4717 169.668 49.4442 170.21 49.4579C174.229 49.4579 178.254 49.4509 182.279 49.4579C182.711 49.4717 183.15 49.3688 183.527 49.1561C183.754 49.0739 183.891 48.875 184.09 48.7653C184.282 48.6556 184.337 48.4295 184.501 48.2853C184.679 47.9699 184.865 47.6408 184.878 47.2703C184.899 47.2703 184.954 47.2635 184.981 47.2567C184.96 34.639 184.981 22.0212 184.967 9.40336Z" fill="url(#paint0_linear_1_1260)" stroke="#FCD109" stroke-width="0.0280253"/>
<path d="M142.492 1.10569C143.075 0.920539 143.685 1.04397 144.282 1.00283C155.48 1.00969 166.679 1.00283 177.877 1.00283C178.542 0.975399 179.125 1.35256 179.742 1.54457C180.236 1.74344 180.75 1.90116 181.244 2.11375C181.347 2.15489 181.422 2.24404 181.497 2.31947C181.491 3.22466 181.497 4.13671 181.497 5.04876C181.504 5.28877 181.463 5.53564 181.545 5.7688C181.69 5.78937 181.765 5.89909 181.861 5.98824C182.314 6.19396 182.697 6.52998 183.109 6.80428C183.726 7.24316 184.385 7.62718 184.988 8.07978C185.015 8.25807 184.995 8.44323 184.94 8.60781C184.878 8.79982 184.919 9.00554 184.899 9.19755C168.653 9.20441 152.415 9.19755 136.176 9.20441C136.142 8.97811 136.204 8.75182 136.108 8.53923C136.094 8.36094 136.032 8.12778 136.204 8.00435C136.889 7.52432 137.616 7.0923 138.288 6.58484C138.707 6.3174 139.111 6.0431 139.516 5.7688C139.598 5.63165 139.57 5.46021 139.57 5.30935C139.57 4.31501 139.57 3.32067 139.577 2.32633C139.81 2.0246 140.215 1.99031 140.537 1.83944C141.189 1.59257 141.847 1.35256 142.492 1.10569ZM142.533 1.22227C141.655 1.55829 140.771 1.88059 139.893 2.21661C139.776 2.23718 139.715 2.34004 139.653 2.42919C139.66 2.48405 139.667 2.58006 139.667 2.63492C139.66 3.45782 139.667 4.28072 139.66 5.10362C139.667 5.30935 139.639 5.51507 139.715 5.70022C139.625 5.78937 139.53 5.87852 139.42 5.94709C138.425 6.5917 137.465 7.29117 136.471 7.92891C136.3 8.03178 136.108 8.16893 136.162 8.39522C136.128 8.51866 136.19 8.62152 136.32 8.58723C138.473 8.57352 140.62 8.60095 142.773 8.56666C145.976 8.56666 149.171 8.57352 152.374 8.56666L152.422 8.54609C152.566 8.58038 152.71 8.56666 152.86 8.56666C158.662 8.56666 164.463 8.57352 170.272 8.56666C172.096 8.57352 173.927 8.56666 175.758 8.56666C178.775 8.56666 181.799 8.59409 184.816 8.58038C184.906 8.55981 184.933 8.49809 184.899 8.38837C184.892 8.27865 184.933 8.12778 184.816 8.05921C184.336 7.83291 183.925 7.48318 183.465 7.20888C183.301 7.07173 183.088 6.99629 182.965 6.81114C182.492 6.5437 182.053 6.21454 181.586 5.91966C181.497 5.8648 181.429 5.77566 181.353 5.70022C181.395 5.55622 181.408 5.39849 181.408 5.24763C181.401 4.37672 181.408 3.50582 181.401 2.63492C181.422 2.49777 181.415 2.34004 181.292 2.2509C180.469 1.95602 179.653 1.64058 178.837 1.33885C178.583 1.21541 178.302 1.14684 178.027 1.10569H142.979C142.828 1.11255 142.684 1.18798 142.533 1.22227Z" fill="#F8F3B5" stroke="#F8F3B5" stroke-width="0.0280253"/>
<path d="M139.667 2.63489C140.27 2.88862 140.915 3.03262 141.525 3.27949C141.854 3.40979 141.957 3.76638 142.101 4.05439C141.957 4.1984 141.785 4.31498 141.614 4.4247C140.983 4.84986 140.339 5.26131 139.715 5.70019C139.639 5.51504 139.667 5.30932 139.66 5.10359C139.667 4.28069 139.66 3.45779 139.667 2.63489ZM179.543 3.27949C180.153 3.03948 180.791 2.8749 181.401 2.63489C181.408 3.50579 181.401 4.3767 181.408 5.2476C181.408 5.39846 181.395 5.55619 181.353 5.70019C180.819 5.32989 180.277 4.98016 179.742 4.61671C179.481 4.4247 179.193 4.28069 178.96 4.04753C179.104 3.75952 179.214 3.40979 179.543 3.27949Z" fill="#F7B402" stroke="#F7B402" stroke-width="0.0280253"/>
<path d="M150.132 3.56067C150.886 3.38237 151.729 4.05441 151.668 4.84302C151.674 5.61792 150.858 6.24881 150.111 6.07051C149.809 5.96765 149.521 5.80993 149.336 5.54249C149.096 5.17904 149.041 4.69215 149.233 4.29442C149.37 3.9104 149.741 3.64981 150.132 3.56067ZM169.696 3.99269C170.011 3.64296 170.512 3.44409 170.978 3.56752C171.328 3.67039 171.671 3.89668 171.822 4.23956C172.124 4.8293 171.89 5.62478 171.301 5.93336C170.779 6.22138 170.121 6.08423 169.723 5.66592C169.319 5.20647 169.291 4.45214 169.696 3.99269Z" fill="#BDA727" stroke="#BDA727" stroke-width="0.0280253"/>
<path d="M141.614 4.42477C141.786 4.31505 141.957 4.19847 142.101 4.05446L142.149 4.10247C142.197 4.45906 142.163 4.82251 142.176 5.1791C142.156 6.24887 142.197 7.3255 142.149 8.39527C140.153 8.39527 138.158 8.38155 136.162 8.39527C136.108 8.16897 136.3 8.03182 136.471 7.92896C137.465 7.29121 138.425 6.59174 139.42 5.94714C139.53 5.87856 139.625 5.78941 139.715 5.70027C140.339 5.26139 140.983 4.84994 141.614 4.42477ZM178.891 4.28762C178.891 4.19847 178.912 4.12304 178.96 4.04761C179.193 4.28076 179.481 4.42477 179.742 4.61678C180.277 4.98023 180.818 5.32996 181.353 5.70027C181.429 5.7757 181.497 5.86485 181.586 5.91971C182.053 6.21458 182.491 6.54374 182.965 6.81118C183.088 6.99634 183.301 7.07177 183.465 7.20892C183.925 7.48322 184.336 7.83295 184.816 8.05925C184.933 8.12783 184.892 8.27869 184.899 8.38841C182.903 8.39527 180.914 8.38155 178.919 8.39527C178.885 8.12097 178.905 7.84667 178.898 7.57923C178.898 6.48202 178.885 5.38482 178.891 4.28762Z" fill="#F7E62D" stroke="#F7E62D" stroke-width="0.0280253"/>
<path d="M184.899 8.38839C182.903 8.39525 180.914 8.38153 178.919 8.39525C178.885 8.12095 178.905 7.84665 178.898 7.5792C178.898 6.482 178.885 5.3848 178.891 4.2876C178.891 4.19845 178.912 4.12302 178.96 4.04758C179.104 3.75957 179.214 3.40984 179.543 3.27954C180.153 3.03953 180.791 2.87495 181.401 2.63494C181.422 2.49779 181.415 2.34007 181.292 2.25092C180.469 1.95604 179.653 1.6406 178.837 1.33887C178.583 1.21543 178.302 1.14686 178.027 1.10571H142.979C142.828 1.11257 142.684 1.188 142.533 1.22229C141.655 1.55831 140.771 1.88061 139.893 2.21663C139.776 2.2372 139.714 2.34006 139.653 2.42921C139.66 2.48407 139.667 2.58008 139.667 2.63494C140.27 2.88867 140.914 3.03267 141.525 3.27954C141.854 3.40984 141.957 3.76643 142.101 4.05444L142.149 4.10245C142.197 4.45904 142.163 4.82248 142.176 5.17907C142.156 6.24885 142.197 7.32547 142.149 8.39525C140.153 8.39525 138.158 8.38153 136.162 8.39525C136.128 8.51868 136.19 8.62154 136.32 8.58726C138.473 8.57354 140.62 8.60097 142.773 8.56668C145.975 8.56668 149.171 8.57354 152.373 8.56668L152.421 8.54611C152.565 8.5804 152.709 8.56668 152.86 8.56668C158.662 8.56668 164.463 8.57354 170.271 8.56668C172.096 8.57354 173.926 8.56668 175.757 8.56668C178.775 8.56668 181.799 8.59411 184.816 8.5804C184.906 8.55983 184.933 8.49811 184.899 8.38839ZM149.233 4.29446C149.37 3.91043 149.74 3.64985 150.131 3.5607C150.886 3.38241 151.729 4.05444 151.667 4.84306C151.674 5.61795 150.858 6.24885 150.111 6.07055C149.809 5.96769 149.521 5.80997 149.336 5.54252C149.096 5.17907 149.041 4.69219 149.233 4.29446ZM169.696 3.99272C170.011 3.64299 170.512 3.44412 170.978 3.56756C171.328 3.67042 171.671 3.89672 171.822 4.2396C172.123 4.82934 171.89 5.62481 171.3 5.9334C170.779 6.22142 170.121 6.08427 169.723 5.66596C169.319 5.2065 169.291 4.45218 169.696 3.99272Z" fill="url(#paint1_radial_1_1260)" stroke="#FCD109" stroke-width="0.0280253"/>
<path d="M171.444 11.402C171.54 11.4226 170.944 10.8297 171.061 10.8022C171.17 10.8159 171.586 10.493 172.089 10.7565C172.592 11.02 172.467 11.6365 172.41 11.8651C172.342 12.1373 172.169 12.3109 172.032 12.448C171.957 12.5098 171.787 12.6058 171.685 12.5989C171.746 12.2629 171.547 12.208 171.534 11.8651L171.444 11.402Z" fill="url(#paint2_linear_1_1260)" stroke="#FCD109" stroke-width="0.0280253"/>
<path d="M149.522 11.7738C149.509 12.1166 149.31 12.1715 149.371 12.5075C149.269 12.5144 149.099 12.4184 149.024 12.3566C148.887 12.2195 148.714 12.0459 148.646 11.7738C148.589 11.5452 148.464 10.9286 148.967 10.6651C149.47 10.4016 149.886 10.7245 149.996 10.7108C150.112 10.7383 149.516 11.3312 149.612 11.3106L149.522 11.7738Z" fill="url(#paint3_linear_1_1260)" stroke="#FCD109" stroke-width="0.0280253"/>
<path d="M170.546 15.7949C170.649 15.7053 170.717 15.7053 170.855 15.7053C170.032 17.4883 169.072 19.2712 167.628 20.6594C167.474 20.7972 167.311 20.925 167.14 21.0419C166.975 21.1628 166.813 21.2762 166.652 21.3918C166.494 21.5013 166.337 21.6114 166.185 21.7263C165.794 21.9389 165.451 22.2338 165.019 22.364C164.23 22.7412 163.38 22.9949 162.523 23.1732C162.187 23.2281 161.844 23.3104 161.501 23.3172C161.076 23.4407 160.623 23.3515 160.191 23.3789C159.951 23.4201 159.739 23.2829 159.505 23.3104C159.303 23.2818 159.101 23.2475 158.901 23.2074C158.697 23.1658 158.495 23.1178 158.295 23.0635C155.151 22.0828 152.065 19.6827 151.166 16.4367C151.126 16.2181 151.105 15.9962 151.105 15.7739C151.201 15.9659 151.3 16.1565 151.403 16.3454C152.682 19.1341 155.219 21.3285 158.217 21.9902C158.46 22.1011 158.724 22.0622 158.957 22.1582C159.169 22.1582 159.375 22.1514 159.581 22.22C160.287 22.2336 160.994 22.2268 161.7 22.2268C161.796 22.2337 161.885 22.1857 161.981 22.1651C163.158 22.1252 164.312 21.8041 165.386 21.3172C165.601 21.2199 165.812 21.1158 166.02 21.0061C166.202 20.9103 166.38 20.8064 166.553 20.6949C166.723 20.5854 166.888 20.4689 167.048 20.3455C168.317 19.3398 169.415 18.0369 170.16 16.5386C170.301 16.2689 170.431 16.0193 170.546 15.7949Z" fill="#BDA727" stroke="#BDA727" stroke-width="0.0280253"/>
<path d="M169.428 21.8908C171.465 20.6976 173.824 20.1215 176.17 20.0118C176.931 19.9432 177.699 19.9638 178.453 20.0598C178.947 20.1764 179.454 20.3135 179.845 20.6496C179.646 20.6633 179.454 20.5741 179.255 20.5467C178.693 20.437 178.11 20.4781 177.541 20.4644C175.888 20.4644 174.222 20.5947 172.624 21.0473C171.788 21.301 170.951 21.5959 170.19 22.0348C168.873 22.7617 167.687 23.7217 166.727 24.8738C165.012 26.842 164.004 29.338 163.517 31.8822C163.284 33.2467 163.017 34.6045 162.804 35.976C162.461 36.0103 162.112 35.9897 161.769 35.9897C160.26 35.9829 158.751 35.976 157.243 35.9625C156.92 35.976 156.605 35.9007 156.283 35.9212C153.54 35.9348 150.797 35.9143 148.054 35.9143L148.109 35.8937C150.145 35.681 152.189 35.4409 154.225 35.2422C156.811 35.2286 159.389 35.2352 161.974 35.2422C162.057 35.2286 162.201 35.2695 162.214 35.153C162.427 34.0421 162.633 32.9313 162.845 31.8202C163.14 30.2775 163.607 28.7551 164.327 27.3493C165.458 25.0863 167.248 23.1662 169.428 21.8908Z" fill="#0D69B3" stroke="#0D69B3" stroke-width="0.0280253"/>
<path d="M172.624 21.0474C174.222 20.5948 175.888 20.4645 177.541 20.4645C178.11 20.4782 178.693 20.437 179.255 20.5468C179.454 20.5742 179.646 20.6633 179.845 20.6496C180.167 20.9102 180.359 21.2942 180.503 21.6783C180.819 22.5903 180.997 23.5366 181.148 24.4898C181.154 24.8739 181.223 25.3059 181.017 25.6556C180.825 25.9985 180.441 26.1631 180.078 26.2659C178.754 26.6088 177.369 26.2864 176.046 26.6088C174.955 26.842 173.94 27.4454 173.248 28.3163C172.432 29.3312 172 30.5928 171.76 31.8548C171.575 32.9794 171.341 34.104 171.156 35.2355C171.074 35.4893 171.026 35.7636 170.978 36.0311C172.274 36.0517 173.57 36.0311 174.866 36.0447C175.36 36.0311 175.854 36.0584 176.347 36.0241C176.622 36.6551 176.56 37.3683 176.471 38.0334C176.361 38.7809 176.183 39.5214 175.847 40.2072C175.565 40.7901 175.099 41.325 174.462 41.5307C174.132 41.661 173.776 41.6336 173.426 41.6336C172.274 41.6336 171.122 41.6473 169.97 41.6336C169.785 42.4772 169.661 43.3411 169.497 44.1983C169.195 45.8646 168.9 47.5379 168.598 49.2112C168.592 49.2661 168.585 49.3826 168.585 49.4443V49.4512C165.588 49.4512 162.598 49.4582 159.601 49.4512C159.608 49.4239 159.615 49.3757 159.622 49.3483C159.629 49.314 159.636 49.2386 159.643 49.1975C159.649 49.2524 159.656 49.3553 159.663 49.4032C159.848 49.4239 160.184 49.5198 160.232 49.2524C160.699 46.7288 161.131 44.1915 161.611 41.6679C161.426 41.6268 161.234 41.6268 161.042 41.661C161.014 41.757 160.987 41.853 160.952 41.949L160.994 41.6404C159.128 41.6334 157.256 41.6404 155.391 41.6334C154.938 41.6199 154.472 41.6334 154.02 41.5786C153.245 41.5443 152.463 41.5718 151.688 41.4963C150.728 41.4963 149.775 41.4072 148.815 41.4072C148.06 41.3317 147.299 41.3591 146.538 41.3248C146.044 41.2632 145.537 41.2905 145.036 41.27C144.22 41.1808 143.391 41.2427 142.575 41.1534C141.711 41.1604 140.846 41.0848 139.982 41.0643C139.989 41.0574 139.996 41.03 139.996 41.0232C140.284 41.03 140.565 41.0094 140.853 41.0025C141.491 40.9203 142.136 40.9751 142.773 40.886C143.439 40.886 144.097 40.7968 144.762 40.7968C145.352 40.7146 145.948 40.7625 146.538 40.6803C147.231 40.6803 147.91 40.5911 148.602 40.5843C149.171 40.5088 149.748 40.55 150.317 40.4746C150.982 40.4814 151.64 40.3785 152.305 40.3853C152.957 40.3098 153.622 40.3304 154.273 40.2618C154.212 40.0082 154.164 39.7545 154.109 39.5007C154.061 39.3429 153.869 39.3771 153.745 39.3566C152.257 39.1439 150.776 38.9314 149.295 38.7257C149.391 38.6501 149.521 38.6844 149.631 38.6709C150.783 38.5815 151.928 38.4787 153.08 38.3966C153.341 38.3828 153.595 38.3349 153.855 38.328C153.739 37.9714 153.67 37.5806 153.512 37.2513C151.051 36.8742 148.589 36.5381 146.134 36.1336C146.771 36.0308 147.416 35.9827 148.054 35.9141C150.797 35.9141 153.54 35.9347 156.283 35.921C156.605 35.9005 156.92 35.9759 157.243 35.9622C158.751 35.9759 160.26 35.9829 161.769 35.9895C162.112 35.9895 162.461 36.0102 162.804 35.9759C163.017 34.6044 163.284 33.2465 163.517 31.882C164.004 29.3378 165.012 26.8418 166.727 24.8737C167.687 23.7216 168.873 22.7615 170.19 22.0346C170.951 21.596 171.787 21.3011 172.624 21.0474Z" fill="#107BD4" stroke="#107BD4" stroke-width="0.0280253"/>
<path d="M171.156 35.2355C172.459 35.2425 173.769 35.2286 175.079 35.2425C175.6 35.2425 176.135 35.5304 176.347 36.0241C175.854 36.0584 175.36 36.0311 174.866 36.0447C173.57 36.0311 172.274 36.0517 170.978 36.0311C171.026 35.7636 171.074 35.4893 171.156 35.2355ZM161.042 41.661C161.234 41.6267 161.426 41.6267 161.611 41.6679C161.131 44.1915 160.699 46.7288 160.232 49.2524C160.184 49.5197 159.848 49.4239 159.663 49.4032C159.656 49.3553 159.649 49.2524 159.643 49.1975C160.075 46.7837 160.493 44.363 160.952 41.9492C160.987 41.853 161.014 41.7571 161.042 41.661Z" fill="#0D69B3" stroke="#0D69B3" stroke-width="0.0280253"/>
<path d="M171.756 11.5939C171.701 11.4911 171.695 11.3676 171.695 11.2511L171.64 11.2579C171.557 10.9562 171.304 10.6682 170.974 10.6545C170.728 10.6339 170.419 10.6407 170.275 10.8739C170.001 11.2442 170.131 11.7174 170.117 12.1357C170.117 12.1631 170.124 12.2111 170.124 12.2385C170.124 12.5197 170.09 12.794 170.042 13.0683C170.001 13.1506 169.98 13.2397 169.98 13.3358C169.864 13.9804 169.63 14.6181 169.315 15.201C169.253 15.2833 169.205 15.3724 169.185 15.4684C168.979 15.825 168.732 16.1542 168.479 16.4833C168.437 16.5176 168.403 16.5588 168.369 16.5999C168.19 16.8194 167.999 17.0045 167.8 17.1965C167.752 17.224 167.717 17.2582 167.676 17.2857C167.443 17.512 167.182 17.7246 166.901 17.896C166.867 17.9166 166.833 17.944 166.791 17.9714C165.036 19.1303 162.903 19.6104 160.825 19.6309C159.063 19.6858 157.287 19.3086 155.696 18.5475C155.669 18.5337 155.6 18.5063 155.572 18.4926C155.305 18.3486 155.031 18.2252 154.784 18.0469C154.729 18.0194 154.674 17.9851 154.612 17.9577C154.359 17.8068 154.119 17.6423 153.892 17.4503C153.817 17.3817 153.735 17.3268 153.652 17.2651C153.405 17.0662 153.152 16.8537 152.939 16.6136C152.884 16.5519 152.829 16.4971 152.775 16.4422C152.027 15.6673 151.444 14.721 151.136 13.6923C150.841 12.8763 150.882 11.9848 150.848 11.1276C150.601 10.7505 150.08 10.5379 149.668 10.771C149.497 10.8945 149.476 11.1208 149.346 11.2785C149.134 13.5415 150.1 15.7976 151.643 17.4297C151.643 17.4845 151.671 17.5188 151.719 17.5394C151.993 17.7931 152.261 18.0537 152.535 18.3006C152.583 18.3486 152.638 18.3966 152.699 18.4377C152.974 18.664 153.269 18.8698 153.557 19.0823C153.611 19.1235 153.666 19.1578 153.728 19.1921C154.105 19.4115 154.462 19.6721 154.866 19.823C154.894 19.8435 154.942 19.8778 154.969 19.8915C156.272 20.5156 157.678 20.9407 159.118 21.0779C159.276 21.0779 159.433 21.0916 159.591 21.1259C160.277 21.167 160.963 21.1465 161.648 21.1327C163.767 20.9476 165.955 20.4333 167.724 19.1852L167.745 19.2126C167.8 19.1646 167.848 19.1235 167.903 19.0823C168.184 18.8766 168.458 18.6572 168.732 18.4309C168.794 18.3829 168.863 18.328 168.924 18.2663C169.226 17.9371 169.576 17.6354 169.83 17.2582L169.871 17.2788C169.891 17.2445 169.926 17.176 169.946 17.1417C170.179 16.8262 170.392 16.4971 170.598 16.1679C170.611 16.1473 170.646 16.113 170.659 16.0925L170.632 16.065C170.653 16.0376 170.701 15.9827 170.721 15.9553C171.098 15.1873 171.434 14.3849 171.551 13.5346C171.599 13.514 171.626 13.4729 171.626 13.4249C171.633 13.1506 171.729 12.89 171.702 12.6157C171.763 12.2797 171.77 11.9368 171.756 11.5939Z" fill="white" stroke="white" stroke-width="0.0280253"/>
<mask id="mask0_1_1260" style="mask-type:luminance" maskUnits="userSpaceOnUse" x="149" y="10" width="23" height="12">
<path d="M171.756 11.5939C171.701 11.4911 171.695 11.3676 171.695 11.2511L171.64 11.2579C171.557 10.9562 171.304 10.6682 170.974 10.6545C170.728 10.6339 170.419 10.6407 170.275 10.8739C170.001 11.2442 170.131 11.7174 170.117 12.1357C170.117 12.1631 170.124 12.2111 170.124 12.2385C170.124 12.5197 170.09 12.794 170.042 13.0683C170.001 13.1506 169.98 13.2397 169.98 13.3358C169.864 13.9804 169.63 14.6181 169.315 15.201C169.253 15.2833 169.205 15.3724 169.185 15.4684C168.979 15.825 168.732 16.1542 168.479 16.4833C168.437 16.5176 168.403 16.5588 168.369 16.5999C168.19 16.8194 167.999 17.0045 167.8 17.1965C167.752 17.224 167.717 17.2582 167.676 17.2857C167.443 17.512 167.182 17.7246 166.901 17.896C166.867 17.9166 166.833 17.944 166.791 17.9714C165.036 19.1303 162.903 19.6104 160.825 19.6309C159.063 19.6858 157.287 19.3086 155.696 18.5475C155.669 18.5337 155.6 18.5063 155.572 18.4926C155.305 18.3486 155.031 18.2252 154.784 18.0469C154.729 18.0194 154.674 17.9851 154.612 17.9577C154.359 17.8068 154.119 17.6423 153.892 17.4503C153.817 17.3817 153.735 17.3268 153.652 17.2651C153.405 17.0662 153.152 16.8537 152.939 16.6136C152.884 16.5519 152.829 16.4971 152.775 16.4422C152.027 15.6673 151.444 14.721 151.136 13.6923C150.841 12.8763 150.882 11.9848 150.848 11.1276C150.601 10.7505 150.08 10.5379 149.668 10.771C149.497 10.8945 149.476 11.1208 149.346 11.2785C149.134 13.5415 150.1 15.7976 151.643 17.4297C151.643 17.4845 151.671 17.5188 151.719 17.5394C151.993 17.7931 152.261 18.0537 152.535 18.3006C152.583 18.3486 152.638 18.3966 152.699 18.4377C152.974 18.664 153.269 18.8698 153.557 19.0823C153.611 19.1235 153.666 19.1578 153.728 19.1921C154.105 19.4115 154.462 19.6721 154.866 19.823C154.894 19.8435 154.942 19.8778 154.969 19.8915C156.272 20.5156 157.678 20.9407 159.118 21.0779C159.276 21.0779 159.433 21.0916 159.591 21.1259C160.277 21.167 160.963 21.1465 161.648 21.1327C163.767 20.9476 165.955 20.4333 167.724 19.1852L167.745 19.2126C167.8 19.1646 167.848 19.1235 167.903 19.0823C168.184 18.8766 168.458 18.6572 168.732 18.4309C168.794 18.3829 168.863 18.328 168.924 18.2663C169.226 17.9371 169.576 17.6354 169.83 17.2582L169.871 17.2788C169.891 17.2445 169.926 17.176 169.946 17.1417C170.179 16.8262 170.392 16.4971 170.598 16.1679C170.611 16.1473 170.646 16.113 170.659 16.0925L170.632 16.065C170.653 16.0376 170.701 15.9827 170.721 15.9553C171.098 15.1873 171.434 14.3849 171.551 13.5346C171.599 13.514 171.626 13.4729 171.626 13.4249C171.633 13.1506 171.729 12.89 171.702 12.6157C171.763 12.2797 171.77 11.9368 171.756 11.5939Z" fill="white"/>
</mask>
<g mask="url(#mask0_1_1260)">
<path d="M148.819 11.3622C149.375 11.5366 150.652 11.0979 151.014 11.4994M149.139 13.0537C149.672 12.8684 150.814 12.4295 151.288 12.688M149.688 14.7453C149.945 14.8286 150.453 14.3763 150.705 14.2437C151.08 14.0464 151.465 13.8952 151.882 13.8309M150.511 16.5282C150.776 16.1508 151.094 15.8373 151.478 15.5692C151.858 15.3035 152.899 14.5937 153.345 14.8367M151.288 17.8083C151.589 17.5686 151.712 17.1447 152.029 16.8929C152.412 16.5883 152.998 16.5336 153.391 16.3453M152.58 18.7568C152.67 18.0939 153.343 17.2938 153.985 17.351M153.574 19.6827C153.913 19.6487 154.2 18.8888 154.43 18.6313C154.774 18.2456 155.13 18.127 155.585 17.9911M155.54 20.5056C155.518 20.0258 156.013 18.6503 156.591 18.7226M157.003 20.9628C156.979 20.3958 157.272 18.6904 157.963 18.6312M158.511 21.8771C158.38 21.0842 158.389 19.9372 159.014 19.3626M160.386 22.06C160.316 21.399 159.659 20.063 160.386 19.5455M162.397 21.6028C162.084 21.2393 161.901 19.8053 162.031 19.4084M164.317 21.2827C164.075 20.8436 163.776 20.4313 163.684 19.9216C163.629 19.617 163.725 19.183 163.677 18.9512M165.917 20.597C165.393 20.2539 165.247 18.9929 165.414 18.4483M167.472 19.9112C167.099 19.1109 166.701 18.4904 166.694 17.5797M168.98 18.4483C168.401 18.0583 167.661 17.3494 167.746 16.574M170.58 17.214C169.7 17.0188 168.643 16.2307 168.112 15.5224M171.312 15.7053C170.676 15.5691 168.577 14.7499 168.706 13.9224M171.998 14.1052C171.112 13.7807 169.824 13.4889 169.117 12.8709M172.455 12.6423C171.897 12.69 171.098 12.42 170.531 12.3222C169.902 12.2137 169.318 12.0016 168.706 11.865M171.906 11.2251C170.831 11.2895 169.821 10.9214 168.843 10.5851" stroke="#D1D1D1" stroke-width="0.596284"/>
</g>
<path d="M34.2789 14.5225C35.2728 14.3725 36.4164 14.2788 37.2601 14.8974C37.785 15.2911 37.9725 16.0035 37.935 16.6411C37.9725 17.691 37.4851 18.816 36.5478 19.3598C35.7227 19.8098 34.7291 19.8471 33.8103 19.7534C33.1916 19.6785 32.5729 19.3411 32.2542 18.7786C31.5415 17.1474 32.4228 14.8412 34.2789 14.5225ZM4.54275 15.7037C4.59891 15.1412 5.1052 14.6349 5.68638 14.6538C10.0176 14.6538 14.3299 14.6725 18.6422 14.6538C19.1109 14.6163 19.6172 14.8224 19.8421 15.2349C20.1607 15.7974 19.8796 16.4161 19.8421 16.9974C19.7109 17.7847 19.7483 18.8348 18.8298 19.1347C15.6798 19.2284 12.5299 19.1347 9.37997 19.1722C9.08003 21.1595 8.7988 23.1282 8.49872 25.0968C8.49872 25.1718 8.51757 25.3407 8.51757 25.4155C10.8237 25.3968 13.1298 25.4155 15.4359 25.3968C16.0735 25.3593 16.7483 25.9033 16.6921 26.578C16.6359 27.2718 16.4859 27.9467 16.3922 28.6405C16.317 29.1092 15.9421 29.5404 15.4546 29.6342C12.8859 29.6904 10.2797 29.5779 7.71134 29.6904C7.29872 32.5215 6.81122 35.3525 6.37995 38.1838C6.32385 38.7463 5.87373 39.2337 5.31127 39.2523C4.24268 39.2712 3.17385 39.2712 2.10525 39.2523C1.41155 39.2712 0.849023 38.5022 1.03644 37.8461C2.18048 30.4593 3.36161 23.0909 4.54275 15.7037ZM23.5918 14.6911C24.5669 14.6162 25.5605 14.6725 26.5355 14.6538C27.1356 14.6163 27.7355 15.0849 27.7916 15.7037C27.7916 16.191 27.6604 16.6786 27.6042 17.166C26.8167 22.1909 26.0105 27.2157 25.2229 32.2405C25.1105 33.0467 24.9043 33.9091 25.1481 34.7341C25.4293 35.559 26.6853 35.2027 26.9854 36.0651C27.1729 36.7589 26.9665 37.4901 26.9103 38.2026C26.8541 39.14 25.7854 39.3462 25.0543 39.5527C23.4607 39.8526 21.5294 39.6276 20.3857 38.315C19.5607 37.359 19.5044 36.0089 19.6733 34.8091C20.667 28.4344 21.6606 22.0598 22.6732 15.6662C22.7295 15.1974 23.1044 14.7662 23.5918 14.6911ZM60.809 15.7037C60.8651 15.1412 61.3714 14.6538 61.9339 14.6538H64.7838C65.4962 14.6349 66.0776 15.4037 65.9088 16.0786C65.2526 20.241 64.5776 24.4033 63.9215 28.5654C64.9151 28.4155 66.0401 28.228 66.7339 27.4219C67.8961 26.1093 68.8525 24.5909 69.5649 22.9972C69.8086 22.3784 69.9399 21.4785 70.7461 21.3659C71.8149 21.3284 72.9022 21.3471 73.9709 21.3659C74.7022 21.3471 75.2459 22.1721 75.0022 22.847C74.7209 23.8409 74.2522 24.7595 73.7648 25.6408C72.6773 27.4032 71.4775 29.1468 69.9024 30.5342C70.5961 32.6153 71.4774 34.6403 72.2461 36.684C72.471 37.3589 73.0149 38.1463 72.5086 38.8027C71.9272 39.5901 70.8398 39.1962 70.0336 39.29C69.1899 39.1962 67.9712 39.6275 67.5024 38.6713C66.6212 36.6276 65.8901 34.5279 64.99 32.4841C64.465 32.5027 63.9214 32.5217 63.3963 32.4654C63.359 32.5404 63.2839 32.6903 63.2463 32.7654C62.965 34.6403 62.6652 36.5153 62.3651 38.39C62.2525 38.84 61.8963 39.2339 61.4089 39.2714C60.4153 39.3089 59.4028 39.29 58.3903 39.29C57.959 39.29 57.5654 39.0088 57.3778 38.6338C57.1903 38.2587 57.3027 37.8277 57.3592 37.4152C58.5215 30.178 59.6652 22.9408 60.809 15.7037ZM112.913 17.7474C113.044 17.2222 113.55 16.8661 114.075 16.8848C114.825 16.9036 115.594 16.8661 116.363 16.9036C116.981 16.9223 117.469 17.541 117.394 18.141C117.281 19.2097 117.019 20.2785 116.944 21.347C117.675 21.347 118.425 21.3284 119.156 21.347C119.813 21.347 120.356 22.0221 120.244 22.6594C120.15 23.2408 120.019 23.8034 119.925 24.3843C119.831 24.872 119.419 25.2657 118.95 25.3406C118.05 25.3968 117.169 25.3031 116.288 25.3968C115.913 27.9091 115.5 30.4214 115.107 32.9341C115.05 33.5152 115.013 34.1714 115.35 34.6777C115.857 35.2964 116.738 35.0713 117.45 35.1464C118.013 35.3151 118.369 35.934 118.275 36.4965C118.181 37.1338 118.163 37.7714 118.013 38.39C117.788 39.0836 116.981 39.215 116.363 39.3836C114.656 39.8338 112.688 39.8338 111.169 38.84C109.763 37.8837 109.538 36.0276 109.688 34.4526C110.082 31.4152 110.701 28.3967 111.038 25.3405C110.513 25.3592 109.875 25.4343 109.482 24.9655C109.032 24.4969 109.257 23.8031 109.332 23.2217C109.444 22.603 109.426 21.7969 110.101 21.4593C110.644 21.253 111.263 21.4032 111.844 21.3281C112.2 20.1284 112.538 18.9285 112.913 17.7474ZM102.32 23.8219C103.501 22.6407 104.926 21.6658 106.557 21.1784C107.269 20.8596 108.188 21.4597 108.169 22.2471C108.038 23.2784 107.794 24.2907 107.626 25.3031C107.55 25.8094 107.119 26.2407 106.613 26.2969C104.776 26.6155 103.182 27.7215 101.907 29.0341C101.588 29.428 101.12 29.8029 101.063 30.3466C100.67 32.9714 100.257 35.5964 99.8447 38.2212C99.7886 38.7836 99.3009 39.3275 98.7197 39.29H95.8698C95.2136 39.3275 94.6325 38.6714 94.7074 38.0151C95.5324 32.8215 96.3575 27.6469 97.1636 22.4532C97.2011 21.9283 97.5761 21.4221 98.1197 21.3658C98.8135 21.3283 99.5071 21.347 100.22 21.347C100.782 21.347 101.307 21.8532 101.307 22.4345C101.307 23.2407 101.232 24.0656 101.213 24.8906C101.663 24.6095 101.945 24.1595 102.32 23.8219ZM32.2352 21.4408C33.2477 21.2347 34.2976 21.4034 35.3101 21.3471C35.8914 21.2722 36.5101 21.6471 36.6037 22.2284C36.6789 22.7533 36.5287 23.2596 36.4724 23.7659C35.7038 28.5845 34.935 33.4029 34.185 38.2214C34.1288 38.7654 33.679 39.3089 33.0976 39.2901C32.0853 39.2901 31.0728 39.3089 30.0417 39.2715C29.4041 39.1963 28.9353 38.4653 29.1042 37.8464C29.9104 32.8406 30.6792 27.8532 31.4854 22.8471C31.5229 22.3034 31.6728 21.6658 32.2352 21.4408ZM92.9075 21.6847C90.1138 21.1596 87.2641 20.7846 84.4328 21.0658C81.9017 21.3847 79.3518 22.5284 77.7958 24.6095C75.6396 27.3468 74.9083 31.0218 75.3956 34.4342C75.6583 36.0653 76.3706 37.7153 77.702 38.7276C78.9393 39.6839 80.608 39.815 82.108 39.5713C84.2077 39.1588 85.9889 37.8091 87.4515 36.3091C87.5264 36.9465 87.3764 37.584 87.414 38.2028C87.4515 38.7838 87.9764 39.3275 88.5576 39.29H90.4702C91.0326 39.29 91.5014 38.7653 91.5389 38.2213C92.3451 33.1403 93.1512 28.078 93.9388 23.0159C94.0511 22.3783 93.5451 21.7596 92.9075 21.6847ZM87.6391 30.5155C86.889 31.9217 85.839 33.1966 84.6578 34.2839C83.983 34.8464 83.1204 35.4277 82.2019 35.2403C81.3018 35.0528 80.8705 34.1154 80.6644 33.3091C80.1957 31.2093 80.6269 28.9217 81.808 27.1032C82.333 26.2593 83.1767 25.622 84.1516 25.3594C85.5203 25.0219 86.9641 25.1906 88.2954 25.5656L88.3703 25.6408C88.2016 27.2718 87.8828 28.8843 87.6391 30.5155ZM56.103 27.7032C56.0841 25.8282 55.578 23.8596 54.2656 22.4533C53.3657 21.4597 52.0157 20.9535 50.7033 20.972C48.5283 20.8972 46.4847 21.966 44.891 23.3907C44.5347 23.6721 44.291 24.0846 43.8974 24.3095C43.8974 23.6906 43.9535 23.072 43.9347 22.4346C43.9535 21.8532 43.4097 21.3471 42.8473 21.3471H40.9348C40.335 21.3471 39.8474 21.8722 39.8099 22.4533C38.6287 29.953 37.4289 37.4526 36.2476 44.9523C36.079 45.646 36.679 46.3585 37.3915 46.3397C38.4413 46.321 39.5101 46.4148 40.5413 46.2646C41.3663 46.0396 41.3474 45.0834 41.4787 44.3897C41.7786 42.7398 41.985 41.0898 42.1725 39.4211C45.866 40.1336 50.1596 39.6463 52.9157 36.8525C55.1655 34.3966 56.2154 31.0029 56.103 27.7032ZM50.8532 29.5967C50.7408 31.3217 50.122 33.0654 48.9222 34.3214C47.3661 35.8028 45.0034 35.5964 43.0911 35.0903C43.0538 35.034 42.9973 34.9214 42.9786 34.8654C43.2786 33.2342 43.4286 31.5842 43.8036 29.9718C44.8536 28.247 46.1284 26.5031 47.9471 25.547C48.6221 25.2284 49.5408 25.3033 50.0283 25.9221C50.8532 26.9532 50.9283 28.3406 50.8532 29.5967Z" fill="#107BD4" stroke="#107BD4" stroke-width="0.0301123"/>
<defs>
<linearGradient id="paint0_linear_1_1260" x1="160.537" y1="9.19756" x2="160.537" y2="49.5036" gradientUnits="userSpaceOnUse">
<stop stop-color="#F7E830"/>
<stop offset="1" stop-color="#FDCB06"/>
</linearGradient>
<radialGradient id="paint1_radial_1_1260" cx="0" cy="0" r="1" gradientUnits="userSpaceOnUse" gradientTransform="translate(160.327 27.581) scale(32.7844)">
<stop offset="0.596" stop-color="#F29405"/>
<stop offset="0.736" stop-color="#F7D01E"/>
<stop offset="1" stop-color="#FDCB06"/>
</radialGradient>
<linearGradient id="paint2_linear_1_1260" x1="171.753" y1="10.6522" x2="171.765" y2="12.5608" gradientUnits="userSpaceOnUse">
<stop stop-color="#FADA1C"/>
<stop offset="1" stop-color="#FDCB06"/>
</linearGradient>
<linearGradient id="paint3_linear_1_1260" x1="149.303" y1="10.5608" x2="149.291" y2="12.4695" gradientUnits="userSpaceOnUse">
<stop stop-color="#FADA1C"/>
<stop offset="1" stop-color="#FDCB06"/>
</linearGradient>
</defs>
</svg>
