<svg width="41" height="41" viewBox="0 0 41 41" fill="none" xmlns="http://www.w3.org/2000/svg">
<path d="M32.2202 32.0201H27.7402C27.7402 31.8201 27.7402 31.6501 27.7402 31.4701C27.7402 28.8501 27.7402 26.2201 27.7402 23.6001C27.7402 22.7501 27.6202 21.9301 27.1702 21.2001C26.5502 20.2101 25.6502 19.7301 24.4802 19.8501C23.2502 19.9801 22.4102 20.6901 21.9802 21.8201C21.7702 22.3701 21.6602 23.0001 21.6502 23.5901C21.6102 26.2001 21.6301 28.8001 21.6301 31.4101C21.6301 31.5901 21.6301 31.7701 21.6301 31.9901H17.1902C17.1802 31.8401 17.1602 31.7001 17.1602 31.5501C17.1602 26.3401 17.1602 21.1201 17.1602 15.9101C17.1602 15.4801 17.2702 15.3301 17.7102 15.3401C19.0002 15.3701 20.2801 15.3401 21.6301 15.3401V17.9901C21.8001 17.8001 21.8802 17.7201 21.9402 17.6301C23.9002 14.8401 28.5002 14.5501 30.7702 17.0801C31.7402 18.1601 32.2202 19.4901 32.2402 20.9101C32.3002 24.5601 32.2702 28.2201 32.2702 31.8701C32.2702 31.9001 32.2501 31.9301 32.2301 32.0001L32.2202 32.0201Z" fill="#7FA842"/>
<path d="M9.56934 32.01V15.41H14.0393V32.01H9.56934Z" fill="#7FA842"/>
<path d="M11.7497 13.41C10.3097 13.41 9.17969 12.23 9.17969 10.74C9.17969 9.28002 10.3697 8.07002 11.7797 8.08002C13.2397 8.09002 14.4397 9.29002 14.4397 10.74C14.4397 12.23 13.2497 13.41 11.7497 13.41Z" fill="#7FA842"/>
<path d="M31.8699 40.09H9.56992C4.65992 40.09 0.669922 36.1 0.669922 31.19V8.9C0.669922 3.99 4.65992 0 9.56992 0H31.8699C36.7799 0 40.7699 3.99 40.7699 8.9V31.2C40.7699 36.11 36.7799 40.1 31.8699 40.1V40.09ZM9.56992 1.89C5.70992 1.89 2.55992 5.03 2.55992 8.9V31.2C2.55992 35.06 5.69992 38.21 9.56992 38.21H31.8699C35.7299 38.21 38.8799 35.07 38.8799 31.2V8.9C38.8799 5.04 35.7399 1.89 31.8699 1.89H9.56992Z" fill="#7FA842"/>
</svg>
