<svg width="41" height="41" viewBox="0 0 41 41" fill="none" xmlns="http://www.w3.org/2000/svg">
<path d="M27.9002 8.07996H30.1602L22.3102 17.29L32.4202 32.02H24.9502L18.2502 21.82L9.8502 32.02H8.9102V30.35L17.3302 20.72L8.7002 8.07996H10.6202L26.0602 30.44H29.6902L14.0302 8.07996H16.2502L21.5002 15.84L27.9002 8.07996Z" fill="#7FA842"/>
<path d="M31.7098 40.09H9.40977C4.49977 40.09 0.509766 36.1 0.509766 31.19V8.9C0.509766 3.99 4.49977 0 9.40977 0H31.7098C36.6198 0 40.6098 3.99 40.6098 8.9V31.2C40.6098 36.11 36.6198 40.1 31.7098 40.1V40.09ZM9.40977 1.89C5.54978 1.89 2.39977 5.03 2.39977 8.9V31.2C2.39977 35.06 5.53977 38.21 9.40977 38.21H31.7098C35.5698 38.21 38.7198 35.07 38.7198 31.2V8.9C38.7198 5.04 35.5798 1.89 31.7098 1.89H9.40977Z" fill="#7FA842"/>
</svg>
