<svg width="225" height="54" viewBox="0 0 225 54" fill="none" xmlns="http://www.w3.org/2000/svg">
<path d="M197.64 18.2561C198.894 18.2561 199.925 17.604 200.064 16.7615L201.302 2.75742C201.302 1.37326 199.681 0.236938 197.644 0.236938C195.609 0.236938 193.991 1.37325 193.991 2.75767L195.227 16.7615C195.363 17.6037 196.395 18.2561 197.645 18.2561H197.64ZM190.078 22.6302C190.707 21.5453 190.659 20.3261 189.997 19.7844L178.496 11.71C177.3 11.0169 175.508 11.8512 174.49 13.6174C173.469 15.3813 173.65 17.3514 174.843 18.0447L187.577 23.9791C188.373 24.2745 189.459 23.706 190.082 22.6219L190.078 22.6302ZM205.209 22.6227C205.837 23.7068 206.917 24.2754 207.714 23.9799L220.448 18.0455C221.648 17.3524 221.819 15.3821 220.807 13.6181C219.785 11.8537 217.989 11.0177 216.796 11.7108L205.295 19.7852C204.637 20.3261 204.588 21.5463 205.213 22.6309L205.209 22.6227ZM197.64 35.7493C198.894 35.7493 199.925 36.3959 200.064 37.2391L201.302 51.2412C201.302 52.6296 199.681 53.7634 197.644 53.7634C195.609 53.7634 193.991 52.6296 193.991 51.2412L195.227 37.2391C195.363 36.3959 196.395 35.7493 197.645 35.7493H197.64ZM205.209 31.3742C205.837 30.2871 206.917 29.7234 207.714 30.0222L220.448 35.9527C221.648 36.6465 221.819 38.6186 220.807 40.384C219.785 42.1427 217.989 42.9809 216.796 42.2888L205.295 34.222C204.637 33.6768 204.588 32.4558 205.213 31.3719H205.208M190.078 31.3727C190.707 32.4558 190.659 33.6768 189.997 34.223L178.496 42.2896C177.3 42.9817 175.508 42.1434 174.49 40.3847C173.469 38.6193 173.65 36.6472 174.843 35.9534L187.577 30.023C188.373 29.7242 189.459 30.2878 190.082 31.3752H190.078" fill="#FDBB30"/>
<path d="M125.097 34.1964C125.097 34.6262 125.059 35.0694 124.941 35.4587C124.454 37.0754 122.781 38.4426 120.689 38.4426C118.944 38.4426 117.558 37.4507 117.558 35.3557C117.558 32.1494 121.084 31.2639 125.098 31.2862L125.097 34.1962V34.1964ZM131.393 28.6088C131.393 23.3217 129.136 18.6695 121.509 18.6695C117.594 18.6695 114.487 19.7701 112.791 20.751L114.033 25.0015C115.583 24.0221 118.053 23.2113 120.391 23.2113C124.26 23.2006 124.893 25.404 124.893 26.8141V27.1479C116.46 27.1354 111.13 30.0579 111.13 36.0113C111.13 39.6491 113.845 43.0563 118.564 43.0563C121.464 43.0563 123.893 41.8978 125.347 40.0402H125.49C125.49 40.0402 126.452 44.0732 131.762 42.5302C131.485 40.8529 131.394 39.0625 131.394 36.9095L131.393 28.6088M0 11.4694C0 11.4694 5.51067 34.0693 6.39064 37.737C7.41713 42.0182 9.26717 43.5943 14.5986 42.5302L18.0393 28.5191C18.9118 25.0372 19.4957 22.5547 20.0579 19.0163H20.1557C20.5504 22.5922 21.1103 25.0479 21.8283 28.5306C21.8283 28.5306 23.2282 34.8918 23.9464 38.2318C24.6653 41.5707 26.6664 43.6765 31.8893 42.5302L40.0882 11.4684H33.4704L30.67 24.8985C29.9171 28.8062 29.2347 31.8631 28.7079 35.4372H28.6143C28.1358 31.8946 27.5264 28.9623 26.7618 25.1541L23.8485 11.4684H16.9522L13.8342 24.8091C12.9518 28.8641 12.1242 32.1372 11.6 35.5923H11.5046C10.9664 32.3388 10.25 28.2235 9.47462 24.3001C9.47462 24.3001 7.62358 14.7577 6.97253 11.4684L0 11.4694ZM52.6064 34.1964C52.6064 34.6262 52.5682 35.0694 52.4489 35.4587C51.9621 37.0754 50.2885 38.4426 48.1961 38.4426C46.4512 38.4426 45.0674 37.4507 45.0674 35.3557C45.0674 32.1494 48.5925 31.2639 52.6071 31.2862L52.6064 34.1962V34.1964ZM58.9014 28.6088C58.9014 23.3217 56.6442 18.6695 49.0189 18.6695C45.1029 18.6695 41.9932 19.7701 40.2982 20.751L41.5389 25.0015C43.0886 24.0221 45.559 23.2113 47.8976 23.2113C51.7689 23.2006 52.4025 25.404 52.4025 26.8141V27.1479C43.9661 27.1354 38.6379 30.0579 38.6379 36.0113C38.6379 39.6491 41.3514 43.0563 46.0675 43.0563C48.9715 43.0563 51.3989 41.8978 52.8543 40.0402H52.9961C52.9961 40.0402 53.9607 44.0732 59.2694 42.5302C58.9918 40.8529 58.9014 39.0625 58.9014 36.9095V28.6088ZM69.4075 35.9366V11.4694H63.1043V42.5312H69.4075V35.9366ZM151.866 11.4694V34.3831C151.866 37.5437 152.461 39.7556 153.73 41.1093C154.843 42.2928 156.67 43.0588 158.862 43.0588C160.726 43.0588 162.559 42.7028 163.424 42.3817L163.343 37.4532C162.699 37.6106 161.96 37.738 160.949 37.738C158.801 37.738 158.083 36.3609 158.083 33.5248V24.7576H163.572V18.8137H158.083V11.4694H151.866ZM135.596 19.1965V42.5312H142.098V30.5834C142.098 29.9375 142.137 29.3748 142.239 28.8602C142.72 26.3562 144.633 24.7576 147.379 24.7576C148.132 24.7576 148.671 24.8396 149.255 24.9225V18.8137C148.765 18.716 148.432 18.6703 147.823 18.6703C145.396 18.6703 142.636 20.2373 141.477 23.5988H141.301V19.1965H135.596ZM73.8211 19.1965V42.5312H80.156V28.8477C80.156 28.2055 80.2314 27.5265 80.4536 26.9378C80.9786 25.5601 82.2597 23.9466 84.3039 23.9466C86.8614 23.9466 88.0557 26.1096 88.0557 29.2312V42.5294H94.3857V28.6793C94.3857 28.0666 94.4693 27.3281 94.6503 26.7879C95.17 25.2198 96.55 23.9449 98.4507 23.9449C101.042 23.9449 102.286 26.0698 102.286 29.7441V42.5287H108.62V28.7844C108.62 21.5371 104.943 18.668 100.792 18.668C98.955 18.668 97.5036 19.1285 96.191 19.9335C95.0889 20.6131 94.1003 21.576 93.2378 22.8418H93.1442C92.1432 20.327 89.7879 18.6693 86.7187 18.6693C82.7757 18.6693 81.0035 20.6698 79.9286 22.3663H79.8342V19.1957H73.8211" fill="#1A75CF"/>
<path d="M223.642 41.3966H223.738C223.865 41.3966 223.946 41.3441 223.946 41.2661C223.946 41.1774 223.87 41.1292 223.752 41.1292C223.711 41.1292 223.67 41.1375 223.642 41.1375V41.3988V41.3963L223.642 41.3966ZM223.627 42.0257H223.291V40.9276C223.367 40.9126 223.545 40.8859 223.773 40.8859C224.021 40.8859 224.132 40.9208 224.214 40.9758C224.282 41.0238 224.332 41.1057 224.332 41.2164C224.332 41.3291 224.229 41.4245 224.076 41.4663V41.4803C224.201 41.5135 224.268 41.6039 224.304 41.7626C224.338 41.921 224.359 41.9857 224.38 42.0264H223.999C223.966 41.9857 223.946 41.8885 223.924 41.7916C223.902 41.6804 223.85 41.6247 223.737 41.6247H223.627L223.627 42.0257ZM223.767 40.5698C223.283 40.5698 222.918 40.9641 222.918 41.4668C222.918 41.9565 223.284 42.356 223.78 42.356C224.278 42.3642 224.643 41.9567 224.643 41.4588C224.643 40.9631 224.278 40.5698 223.774 40.5698H223.767ZM223.788 40.2717C224.462 40.2717 225 40.8029 225 41.4585C225 42.1219 224.462 42.6538 223.779 42.6538C223.096 42.6538 222.552 42.1211 222.552 41.4588C222.552 40.8029 223.097 40.272 223.779 40.272H223.787" fill="#FDBB30"/>
</svg>
